<?xml version="1.0" encoding="UTF-8"?>
<svg version="1.1" xmlns="http://www.w3.org/2000/svg" width="500" height="500">
<path d="M0 0 C6.22862628 -0.64881524 10.18991141 0.1220859 15.46875 3.515625 C17.28665672 5.27788151 17.62020398 6.53132589 18 9 C18.66 9 19.32 9 20 9 C20 9.66 20 10.32 20 11 C20.66 11 21.32 11 22 11 C22.34611328 11.8353125 22.34611328 11.8353125 22.69921875 12.6875 C24.44780872 16.7790623 26.27024461 20.54802899 28.75 24.25 C30.73408531 27.28376959 31.58040093 29.28543405 31 33 C31.66 33 32.32 33 33 33 C33.17015625 33.70125 33.3403125 34.4025 33.515625 35.125 C34.70052436 39.76375493 35.86172073 44.04538836 38.1875 48.25 C40.24074389 52.02859333 40.35471389 54.74343332 40 59 C40.66 59 41.32 59 42 59 C42.06058594 59.63808594 42.12117187 60.27617188 42.18359375 60.93359375 C42.26738281 61.75988281 42.35117187 62.58617187 42.4375 63.4375 C42.51871094 64.26121094 42.59992188 65.08492188 42.68359375 65.93359375 C42.78930815 67.98662025 42.78930815 67.98662025 44 69 C44.32351301 71.83972535 44.5130429 74.68073737 44.71875 77.53125 C44.73385265 79.9413605 44.73385265 79.9413605 46 81 C46.22662859 82.39012525 46.39433541 83.78998618 46.53515625 85.19140625 C46.66567383 86.48594727 46.66567383 86.48594727 46.79882812 87.80664062 C46.88583984 88.71607422 46.97285156 89.62550781 47.0625 90.5625 C47.19881836 91.88604492 47.19881836 91.88604492 47.33789062 93.23632812 C47.85724099 98.51964425 48.09290789 103.69186258 48 109 C48.99 109 49.98 109 51 109 C51 108.34 51 107.68 51 107 C54.8962407 104.17598058 59.20484016 102.79372041 63.75 101.375 C68.22044443 100.27721282 68.22044443 100.27721282 72 98 C74.33297433 97.95907063 76.66705225 97.95758277 79 98 C79 97.34 79 96.68 79 96 C79.91523438 95.86722656 80.83046875 95.73445313 81.7734375 95.59765625 C83.55621094 95.33275391 83.55621094 95.33275391 85.375 95.0625 C87.15003906 94.80146484 87.15003906 94.80146484 88.9609375 94.53515625 C91.90702381 94.16537214 91.90702381 94.16537214 94 93 C107.66699461 91.38561967 122.06824284 90.80770356 135 96 C135 96.66 135 97.32 135 98 C135.639375 98.103125 136.27875 98.20625 136.9375 98.3125 C137.9584375 98.6528125 137.9584375 98.6528125 139 99 C139.33 99.99 139.66 100.98 140 102 C140.66 102 141.32 102 142 102 C144.09271776 108.67053787 146.25000775 118.4999845 143 125 C142.77141886 127.0374763 142.58975722 129.08040303 142.4375 131.125 C142.35371094 132.22070312 142.26992188 133.31640625 142.18359375 134.4453125 C142.12300781 135.28835937 142.06242187 136.13140625 142 137 C141.34 137 140.68 137 140 137 C140.0928125 138.7015625 140.0928125 138.7015625 140.1875 140.4375 C140.21380222 145.33847991 138.76012394 149.473967 137 154 C136.34 154 135.68 154 135 154 C135.061875 155.5778125 135.061875 155.5778125 135.125 157.1875 C135.00852125 160.74010173 134.52791932 162.84866641 133 166 C132.34 166 131.68 166 131 166 C131 168.31 131 170.62 131 173 C130.34 173 129.68 173 129 173 C128.9175 173.845625 128.835 174.69125 128.75 175.5625 C127.98404532 179.0731256 126.83205925 181.24351962 124.98828125 184.25390625 C123.59487652 186.71577152 122.79186691 189.29445472 122 192 C121.34 192 120.68 192 120 192 C119.87625 192.5775 119.7525 193.155 119.625 193.75 C118.99351176 196.02335767 118.11141809 197.9253529 117 200 C116.34 200 115.68 200 115 200 C115 201.32 115 202.64 115 204 C114.34 204 113.68 204 113 204 C113 204.66 113 205.32 113 206 C112.34 206 111.68 206 111 206 C110.938125 206.721875 110.87625 207.44375 110.8125 208.1875 C109.75482086 211.84869702 107.72833857 213.40807836 105 216 C104.67 216.99 104.34 217.98 104 219 C103.34 219 102.68 219 102 219 C102 219.99 102 220.98 102 222 C101.34 222 100.68 222 100 222 C100 222.66 100 223.32 100 224 C99.34 224 98.68 224 98 224 C97.67 225.32 97.34 226.64 97 228 C96.34 228 95.68 228 95 228 C95 228.66 95 229.32 95 230 C95.66 230 96.32 230 97 230 C97.84324672 231.578076 98.67423918 233.1627042 99.5 234.75 C99.9640625 235.63171875 100.428125 236.5134375 100.90625 237.421875 C102 240 102 240 102 244 C102.66 244 103.32 244 104 244 C104 245.65 104 247.3 104 249 C104.66 249 105.32 249 106 249 C106.84678051 250.86896555 107.67686211 252.74550181 108.5 254.625 C108.9640625 255.66914063 109.428125 256.71328125 109.90625 257.7890625 C111.02767398 261.08124291 111.207138 263.55115223 111 267 C111.66 267 112.32 267 113 267 C115.10428384 272.12919186 115.21755666 276.5610835 115 282 C115.66 282 116.32 282 117 282 C117.13277344 282.63808594 117.26554687 283.27617187 117.40234375 283.93359375 C117.57894531 284.75988281 117.75554687 285.58617187 117.9375 286.4375 C118.11152344 287.26121094 118.28554688 288.08492188 118.46484375 288.93359375 C118.80752994 290.97661204 118.80752994 290.97661204 120 292 C120.31923492 294.0572917 120.51161352 296.11613521 120.71875 298.1875 C120.81998043 300.0167533 120.81998043 300.0167533 122 301 C122.20896317 302.80811184 122.36780361 304.62216032 122.5 306.4375 C122.71419183 310.36434915 122.71419183 310.36434915 124 314 C124.14224553 316.00756829 124.22624306 318.01940048 124.28125 320.03125 C124.31863281 321.23394531 124.35601562 322.43664062 124.39453125 323.67578125 C124.46484375 326.22526042 124.53515625 328.77473958 124.60546875 331.32421875 C124.64285156 332.52691406 124.68023437 333.72960937 124.71875 334.96875 C124.74904297 336.07669922 124.77933594 337.18464844 124.81054688 338.32617188 C124.8265449 340.97215596 124.8265449 340.97215596 126 343 C126.09706713 345.14404169 126.12978536 347.29126751 126.125 349.4375 C126.12757813 350.59121094 126.13015625 351.74492187 126.1328125 352.93359375 C126 356 126 356 125 359 C124.87339034 360.85035302 124.79839856 362.70444793 124.75390625 364.55859375 C124.72103516 365.66783203 124.68816406 366.77707031 124.65429688 367.91992188 C124.5940184 370.2297417 124.53663411 372.53963922 124.48242188 374.84960938 C124.15668663 385.53741295 122.77229785 395.59760992 119.375 405.75 C119.14554687 406.45898438 118.91609375 407.16796875 118.6796875 407.8984375 C118.12736462 409.60143306 117.56485594 411.30112031 117 413 C116.34 413 115.68 413 115 413 C115.061875 414.3303125 115.061875 414.3303125 115.125 415.6875 C115.00102754 418.97277013 114.38612096 421.05449295 113 424 C112.34 424 111.68 424 111 424 C111 425.32 111 426.64 111 428 C110.34 428 109.68 428 109 428 C108.9175 428.78375 108.835 429.5675 108.75 430.375 C108.5025 431.24125 108.255 432.1075 108 433 C106.66666667 433.66666667 105.33333333 434.33333333 104 435 C103.65725594 436.66475686 103.32635698 438.33195323 103 440 C100.85679911 444.04914707 98.49924138 447.98728416 95 451 C94.34 451 93.68 451 93 451 C93 451.66 93 452.32 93 453 C92.34 453 91.68 453 91 453 C91 453.66 91 454.32 91 455 C90.21625 455.2475 89.4325 455.495 88.625 455.75 C85.56360186 457.20780864 85.41293481 458.07993473 84 461 C81.875 461.75 81.875 461.75 80 462 C80 462.66 80 463.32 80 464 C77 466 77 466 74 466 C73.67 466.99 73.34 467.98 73 469 C70.39757586 470.64820195 69.13751221 471 66 471 C66 471.66 66 472.32 66 473 C62.62902617 474.49821059 60.79557881 475 57 475 C57 475.66 57 476.32 57 477 C51.39792278 479.73589818 45.78638362 481.06119891 39.6953125 482.3515625 C37.09754507 482.72842337 37.09754507 482.72842337 36 484 C33.66666667 484.33333333 31.33333333 484.66666667 29 485 C28.67 485.33 28.34 485.66 28 486 C26.14712498 486.07226502 24.29166122 486.0838122 22.4375 486.0625 C21.42558594 486.05347656 20.41367187 486.04445313 19.37109375 486.03515625 C18.19740234 486.01775391 18.19740234 486.01775391 17 486 C17 486.66 17 487.32 17 488 C13.83534001 488.91785823 10.90209998 489.17483955 7.61328125 489.28125 C6.59298828 489.31863281 5.57269531 489.35601562 4.52148438 489.39453125 C2.37045532 489.46522849 0.21941345 489.53553683 -1.93164062 489.60546875 C-2.94806641 489.64285156 -3.96449219 489.68023437 -5.01171875 489.71875 C-5.94459717 489.74904297 -6.87747559 489.77933594 -7.83862305 489.81054688 C-9.97910459 489.76488393 -9.97910459 489.76488393 -11 491 C-13.87264056 491.10106874 -16.72073628 491.13969672 -19.59375 491.1328125 C-20.8865387 491.13424759 -20.8865387 491.13424759 -22.20544434 491.13571167 C-24.03133212 491.1363935 -25.85722231 491.13453904 -27.68310547 491.13037109 C-30.48801078 491.12502286 -33.29275595 491.13031599 -36.09765625 491.13671875 C-37.86718786 491.13605797 -39.63671936 491.13477681 -41.40625 491.1328125 C-42.25102905 491.13483673 -43.09580811 491.13686096 -43.96618652 491.13894653 C-49.88504969 491.11495031 -49.88504969 491.11495031 -51 490 C-52.64729147 489.85454049 -54.300307 489.77278996 -55.953125 489.71875 C-56.96503906 489.68136719 -57.97695312 489.64398438 -59.01953125 489.60546875 C-60.61861328 489.55326172 -60.61861328 489.55326172 -62.25 489.5 C-64.33866828 489.43080485 -66.42722106 489.35801009 -68.515625 489.28125 C-69.44665039 489.25095703 -70.37767578 489.22066406 -71.33691406 489.18945312 C-73.96570405 489.00243983 -76.43060624 488.57459507 -79 488 C-79 487.34 -79 486.68 -79 486 C-79.70125 486.03480469 -80.4025 486.06960938 -81.125 486.10546875 C-86.73304552 486.26548092 -91.0268886 485.97097348 -96.171875 483.72265625 C-98.22365752 482.82971224 -98.22365752 482.82971224 -101.5 482.5 C-105.64622798 481.90768172 -109.14557454 480.58047571 -113 479 C-113.99 478.608125 -114.98 478.21625 -116 477.8125 C-116.66 477.544375 -117.32 477.27625 -118 477 C-118 476.34 -118 475.68 -118 475 C-118.66 474.896875 -119.32 474.79375 -120 474.6875 C-123.83841009 473.80786436 -127.33096691 472.43030104 -131 471 C-131 470.34 -131 469.68 -131 469 C-132.32 468.67 -133.64 468.34 -135 468 C-135 467.34 -135 466.68 -135 466 C-135.598125 465.855625 -136.19625 465.71125 -136.8125 465.5625 C-138.56150404 465.1127561 -140.28677023 464.57107659 -142 464 C-142 463.34 -142 462.68 -142 462 C-142.66 462 -143.32 462 -144 462 C-144 461.34 -144 460.68 -144 460 C-144.8353125 459.9071875 -144.8353125 459.9071875 -145.6875 459.8125 C-149.04072809 458.63433878 -150.60149402 456.62162281 -153 454 C-153.61875 453.32710938 -154.2375 452.65421875 -154.875 451.9609375 C-160 446.27797379 -160 446.27797379 -160 444 C-160.66 444 -161.32 444 -162 444 C-162 443.01 -162 442.02 -162 441 C-162.66 441 -163.32 441 -164 441 C-164.495 439.02 -164.495 439.02 -165 437 C-165.66 437 -166.32 437 -167 437 C-168.4606285 434.35261084 -169 433.10551666 -169 430 C-169.66 430 -170.32 430 -171 430 C-171 428.68 -171 427.36 -171 426 C-171.66 426 -172.32 426 -173 426 C-173 424.68 -173 423.36 -173 422 C-173.66 422 -174.32 422 -175 422 C-175.33 419.69 -175.66 417.38 -176 415 C-176.66 415 -177.32 415 -178 415 C-178 413.35 -178 411.7 -178 410 C-178.66 410 -179.32 410 -180 410 C-180.144375 408.865625 -180.28875 407.73125 -180.4375 406.5625 C-180.61171478 403.19222799 -180.61171478 403.19222799 -182 402 C-182.28484531 399.51777659 -182.44806553 397.03531145 -182.62109375 394.54296875 C-182.85126664 392.04095631 -182.85126664 392.04095631 -183.95426941 390.18209839 C-187.80451298 382.14789687 -187.28781228 372.01214316 -187.23046875 363.3046875 C-187.23001053 362.15001984 -187.22955231 360.99535217 -187.2290802 359.80569458 C-187.22608309 357.39063475 -187.21827417 354.9755764 -187.20581055 352.56054688 C-187.18737675 348.85019163 -187.18530245 345.14008409 -187.18554688 341.4296875 C-187.18063732 339.07551866 -187.17481147 336.72135151 -187.16796875 334.3671875 C-187.16685593 333.25584442 -187.1657431 332.14450134 -187.16459656 330.9994812 C-187.15821671 329.97726471 -187.15183685 328.95504822 -187.14526367 327.90185547 C-187.14145187 327.00095184 -187.13764008 326.10004822 -187.13371277 325.17184448 C-187 323 -187 323 -186 321 C-185.43925227 317.63113276 -184.97415548 314.25315589 -184.5 310.87109375 C-184 308 -184 308 -183 307 C-182.79103683 305.19188816 -182.63219639 303.37783968 -182.5 301.5625 C-182.10992366 296.21984733 -182.10992366 296.21984733 -181 294 C-180.84679619 292.60698016 -180.72604374 291.21027175 -180.625 289.8125 C-180.18271436 285.41070485 -178.80833998 282.05068156 -177 278 C-176.21594328 275.02154064 -175.58281152 272.02376329 -175 269 C-174.34 269 -173.68 269 -173 269 C-173.04125 268.113125 -173.0825 267.22625 -173.125 266.3125 C-173.00102754 263.02722987 -172.38612096 260.94550705 -171 258 C-170.34 258 -169.68 258 -169 258 C-169.103125 257.21625 -169.20625 256.4325 -169.3125 255.625 C-168.86497383 250.43369641 -166.49492028 246.50867736 -164 242 C-163.34 242 -162.68 242 -162 242 C-161.896875 241.154375 -161.79375 240.30875 -161.6875 239.4375 C-160.9171146 235.58557299 -159.63725486 232.55924969 -158 229 C-157.34 229 -156.68 229 -156 229 C-155.731875 228.29875 -155.46375 227.5975 -155.1875 226.875 C-153.9318551 223.8350176 -152.49764877 220.9272226 -151 218 C-150.34 218 -149.68 218 -149 218 C-148.855625 217.401875 -148.71125 216.80375 -148.5625 216.1875 C-147.45848577 211.89411131 -146.47900235 210.60925176 -143 208 C-142.67 207.01 -142.34 206.02 -142 205 C-141.34 205 -140.68 205 -140 205 C-140 204.01 -140 203.02 -140 202 C-139.34 202 -138.68 202 -138 202 C-136.28365664 199.37500427 -135.98137264 198.17882263 -136.3125 195 C-137.11229377 191.48903515 -137.11229377 191.48903515 -138 188 C-138.66 188 -139.32 188 -140 188 C-140.17015625 187.2265625 -140.3403125 186.453125 -140.515625 185.65625 C-141.84126583 179.95881494 -143.31583366 174.93416606 -146.0859375 169.78515625 C-148.80492757 164.47499188 -149.32107453 158.88670738 -149.75390625 153.0390625 C-149.78619224 151.00804547 -149.78619224 151.00804547 -151 150 C-151.07179964 148.48071962 -151.08392007 146.95832518 -151.0625 145.4375 C-151.05347656 144.61121094 -151.04445312 143.78492188 -151.03515625 142.93359375 C-151.02355469 142.29550781 -151.01195312 141.65742188 -151 141 C-151.66 141 -152.32 141 -153 141 C-153 135.72 -153 130.44 -153 125 C-153.66 125 -154.32 125 -155 125 C-155 114.77 -155 104.54 -155 94 C-154.34 94 -153.68 94 -153 94 C-153.02320313 93.07058594 -153.04640625 92.14117187 -153.0703125 91.18359375 C-153.24956063 78.90509666 -153.24956063 78.90509666 -151 73 C-150.34 73 -149.68 73 -149 73 C-148.855625 72.236875 -148.71125 71.47375 -148.5625 70.6875 C-147.43488188 65.29999122 -147.43488188 65.29999122 -144.58203125 63.33203125 C-139.84091735 61.56897799 -135.70054831 61.59880488 -130.6875 61.6875 C-129.33881836 61.68266602 -129.33881836 61.68266602 -127.96289062 61.67773438 C-119.63898961 61.74394038 -112.32711053 62.86675816 -105 67 C-105 67.66 -105 68.32 -105 69 C-103.74316406 68.89171875 -103.74316406 68.89171875 -102.4609375 68.78125 C-98.26709363 69.04632365 -95.2483589 70.54081429 -91.625 72.5 C-90.98433594 72.83386719 -90.34367187 73.16773437 -89.68359375 73.51171875 C-88.11666329 74.33026451 -86.55749759 75.16364513 -85 76 C-85 76.66 -85 77.32 -85 78 C-84.21625 78.144375 -83.4325 78.28875 -82.625 78.4375 C-80 79 -80 79 -78 80 C-78 80.66 -78 81.32 -78 82 C-76.68 82 -75.36 82 -74 82 C-74 82.66 -74 83.32 -74 84 C-73.443125 84.268125 -72.88625 84.53625 -72.3125 84.8125 C-69.78774666 86.10899496 -67.36285516 87.42476323 -65 89 C-65 89.66 -65 90.32 -65 91 C-63.02 91.99 -63.02 91.99 -61 93 C-60.81824219 92.35933594 -60.63648438 91.71867187 -60.44921875 91.05859375 C-58.93729955 85.85604103 -57.24999329 80.92855673 -55 76 C-54.34 76 -53.68 76 -53 76 C-53 73.69 -53 71.38 -53 69 C-52.34 69 -51.68 69 -51 69 C-51 67.68 -51 66.36 -51 65 C-50.34 65 -49.68 65 -49 65 C-48.855625 64.2575 -48.71125 63.515 -48.5625 62.75 C-48.09812508 60.47972261 -47.58136431 58.24240521 -47 56 C-46.34 56 -45.68 56 -45 56 C-43.25150329 51.6960081 -41.6229639 47.35249409 -40 43 C-39.34 43 -38.68 43 -38 43 C-37.690625 42.21625 -37.38125 41.4325 -37.0625 40.625 C-36 38 -36 38 -35 36 C-34.34 36 -33.68 36 -33 36 C-33 35.01 -33 34.02 -33 33 C-32.34 33 -31.68 33 -31 33 C-30.6596875 31.948125 -30.6596875 31.948125 -30.3125 30.875 C-28.66158712 27.25871465 -26.7091165 24.91230024 -24 22 C-23.34 22 -22.68 22 -22 22 C-21.7834375 21.071875 -21.7834375 21.071875 -21.5625 20.125 C-21 18 -21 18 -20 16 C-19.34 16 -18.68 16 -18 16 C-17.67 15.01 -17.34 14.02 -17 13 C-16.34 13 -15.68 13 -15 13 C-15 12.34 -15 11.68 -15 11 C-14.34 11 -13.68 11 -13 11 C-13 10.34 -13 9.68 -13 9 C-11.7934375 8.5978125 -11.7934375 8.5978125 -10.5625 8.1875 C-9.716875 7.795625 -8.87125 7.40375 -8 7 C-7.67 6.01 -7.34 5.02 -7 4 C-6.01 4 -5.02 4 -4 4 C-4 3.34 -4 2.68 -4 2 C-2.68 2 -1.36 2 0 2 C0 1.34 0 0.68 0 0 Z " fill="#FEFE77" transform="translate(259,8)"/>
<path d="M0 0 C6.22862628 -0.64881524 10.18991141 0.1220859 15.46875 3.515625 C17.28665672 5.27788151 17.62020398 6.53132589 18 9 C18.66 9 19.32 9 20 9 C20 9.66 20 10.32 20 11 C20.66 11 21.32 11 22 11 C22.34611328 11.8353125 22.34611328 11.8353125 22.69921875 12.6875 C24.44780872 16.7790623 26.27024461 20.54802899 28.75 24.25 C30.73408531 27.28376959 31.58040093 29.28543405 31 33 C31.66 33 32.32 33 33 33 C33.17015625 33.70125 33.3403125 34.4025 33.515625 35.125 C34.70052436 39.76375493 35.86172073 44.04538836 38.1875 48.25 C40.24074389 52.02859333 40.35471389 54.74343332 40 59 C40.66 59 41.32 59 42 59 C42.06058594 59.63808594 42.12117187 60.27617188 42.18359375 60.93359375 C42.26738281 61.75988281 42.35117187 62.58617187 42.4375 63.4375 C42.51871094 64.26121094 42.59992188 65.08492188 42.68359375 65.93359375 C42.78930815 67.98662025 42.78930815 67.98662025 44 69 C44.32351301 71.83972535 44.5130429 74.68073737 44.71875 77.53125 C44.73385265 79.9413605 44.73385265 79.9413605 46 81 C46.22662859 82.39012525 46.39433541 83.78998618 46.53515625 85.19140625 C46.66567383 86.48594727 46.66567383 86.48594727 46.79882812 87.80664062 C46.88583984 88.71607422 46.97285156 89.62550781 47.0625 90.5625 C47.19881836 91.88604492 47.19881836 91.88604492 47.33789062 93.23632812 C47.85724099 98.51964425 48.09290789 103.69186258 48 109 C48.99 109 49.98 109 51 109 C51 108.34 51 107.68 51 107 C54.8962407 104.17598058 59.20484016 102.79372041 63.75 101.375 C68.22044443 100.27721282 68.22044443 100.27721282 72 98 C74.33297433 97.95907063 76.66705225 97.95758277 79 98 C79 97.34 79 96.68 79 96 C79.91523438 95.86722656 80.83046875 95.73445313 81.7734375 95.59765625 C82.96195313 95.42105469 84.15046875 95.24445313 85.375 95.0625 C86.55835938 94.88847656 87.74171875 94.71445313 88.9609375 94.53515625 C91.90702381 94.16537214 91.90702381 94.16537214 94 93 C107.66699461 91.38561967 122.06824284 90.80770356 135 96 C135 96.66 135 97.32 135 98 C135.639375 98.103125 136.27875 98.20625 136.9375 98.3125 C137.9584375 98.6528125 137.9584375 98.6528125 139 99 C139.33 99.99 139.66 100.98 140 102 C140.66 102 141.32 102 142 102 C144.09271776 108.67053787 146.25000775 118.4999845 143 125 C142.77141886 127.0374763 142.58975722 129.08040303 142.4375 131.125 C142.35371094 132.22070312 142.26992188 133.31640625 142.18359375 134.4453125 C142.12300781 135.28835937 142.06242187 136.13140625 142 137 C141.34 137 140.68 137 140 137 C140.0928125 138.7015625 140.0928125 138.7015625 140.1875 140.4375 C140.21380222 145.33847991 138.76012394 149.473967 137 154 C136.34 154 135.68 154 135 154 C135.061875 155.5778125 135.061875 155.5778125 135.125 157.1875 C135.00852125 160.74010173 134.52791932 162.84866641 133 166 C132.34 166 131.68 166 131 166 C131 168.31 131 170.62 131 173 C130.34 173 129.68 173 129 173 C128.9175 173.845625 128.835 174.69125 128.75 175.5625 C127.98404532 179.0731256 126.83205925 181.24351962 124.98828125 184.25390625 C123.59487652 186.71577152 122.79186691 189.29445472 122 192 C121.34 192 120.68 192 120 192 C119.87625 192.5775 119.7525 193.155 119.625 193.75 C118.99351176 196.02335767 118.11141809 197.9253529 117 200 C116.34 200 115.68 200 115 200 C115 201.32 115 202.64 115 204 C114.34 204 113.68 204 113 204 C113 204.66 113 205.32 113 206 C112.34 206 111.68 206 111 206 C110.938125 206.721875 110.87625 207.44375 110.8125 208.1875 C109.75482086 211.84869702 107.72833857 213.40807836 105 216 C104.67 216.99 104.34 217.98 104 219 C103.34 219 102.68 219 102 219 C102 219.99 102 220.98 102 222 C101.34 222 100.68 222 100 222 C100 222.66 100 223.32 100 224 C99.34 224 98.68 224 98 224 C97.67 225.32 97.34 226.64 97 228 C96.34 228 95.68 228 95 228 C95 228.66 95 229.32 95 230 C92.66015625 229.76171875 92.66015625 229.76171875 90 229 C88.55859375 227.14453125 88.55859375 227.14453125 87.4375 224.8125 C85.99204135 221.93530541 84.56147893 219.24461139 82.6875 216.625 C81 214 81 214 81 211 C80.34 211 79.68 211 79 211 C76.85697375 208.58045423 75.10413942 206.18224399 73.5 203.375 C72.15203967 200.92861552 72.15203967 200.92861552 70 199.5 C68 198 68 198 66.625 195.6875 C63.74627795 190.9265366 60.11190581 187.27195814 55 185 C54.67 184.34 54.34 183.68 54 183 C51.98330173 181.86649466 51.98330173 181.86649466 50 181 C50 180.34 50 179.68 50 179 C49.01 179 48.02 179 47 179 C47 178.34 47 177.68 47 177 C46.38125 176.690625 45.7625 176.38125 45.125 176.0625 C43.75 175.375 42.375 174.6875 41 174 C41 173.34 41 172.68 41 172 C40.443125 171.9175 39.88625 171.835 39.3125 171.75 C36.26322081 170.76104459 34.34810037 169.15242534 32 167 C32 166.34 32 165.68 32 165 C31.195625 164.8453125 31.195625 164.8453125 30.375 164.6875 C28 164 28 164 25.25 162.5625 C22.57917581 161.27844991 20.52602495 160.57731063 17.6875 159.9375 C16.470625 159.628125 15.25375 159.31875 14 159 C13.67 158.34 13.34 157.68 13 157 C10.22770623 156.1219655 10.22770623 156.1219655 7 155.4375 C1.09312977 154.09312977 1.09312977 154.09312977 0 153 C-11.12531239 150.64201402 -22.64985461 149.43865385 -34 150 C-35.38149251 150.04354081 -36.76300437 150.08647027 -38.14453125 150.12890625 C-49.94954812 150.56987186 -60.2188274 152.2252209 -70.76171875 157.875 C-73.72809537 159.3659537 -76.80759299 160.11322028 -80 161 C-81.36528847 161.68665193 -82.71922259 162.39622757 -84.0625 163.125 C-87.50328424 164.93593907 -90.06360277 165.39363972 -94 165 C-94 165.66 -94 166.32 -94 167 C-96.63892176 168.78305524 -98.97178863 169.99059621 -102 171 C-102.33 171.99 -102.66 172.98 -103 174 C-104.63978318 175.04349839 -106.31464976 176.03182008 -108 177 C-112.74489018 180.30704467 -117.01324936 183.79176321 -121 188 C-122.0828125 188.99 -122.0828125 188.99 -123.1875 190 C-125.19274447 192.21268355 -126.06170175 194.18510525 -127 197 C-130.25 197.375 -130.25 197.375 -134 197 C-136.70448323 193.87944243 -138 192.16725696 -138 188 C-138.66 188 -139.32 188 -140 188 C-140.25523437 186.83984375 -140.25523437 186.83984375 -140.515625 185.65625 C-141.84126583 179.95881494 -143.31583366 174.93416606 -146.0859375 169.78515625 C-148.80492757 164.47499188 -149.32107453 158.88670738 -149.75390625 153.0390625 C-149.78619224 151.00804547 -149.78619224 151.00804547 -151 150 C-151.07179964 148.48071962 -151.08392007 146.95832518 -151.0625 145.4375 C-151.05347656 144.61121094 -151.04445313 143.78492188 -151.03515625 142.93359375 C-151.01775391 141.97646484 -151.01775391 141.97646484 -151 141 C-151.66 141 -152.32 141 -153 141 C-153 135.72 -153 130.44 -153 125 C-153.66 125 -154.32 125 -155 125 C-155 114.77 -155 104.54 -155 94 C-154.34 94 -153.68 94 -153 94 C-153.02320313 93.07058594 -153.04640625 92.14117187 -153.0703125 91.18359375 C-153.24956063 78.90509666 -153.24956063 78.90509666 -151 73 C-150.34 73 -149.68 73 -149 73 C-148.855625 72.236875 -148.71125 71.47375 -148.5625 70.6875 C-147.43488188 65.29999122 -147.43488188 65.29999122 -144.58203125 63.33203125 C-139.84091735 61.56897799 -135.70054831 61.59880488 -130.6875 61.6875 C-129.33881836 61.68266602 -129.33881836 61.68266602 -127.96289062 61.67773438 C-119.63898961 61.74394038 -112.32711053 62.86675816 -105 67 C-105 67.66 -105 68.32 -105 69 C-103.74316406 68.89171875 -103.74316406 68.89171875 -102.4609375 68.78125 C-98.26709363 69.04632365 -95.2483589 70.54081429 -91.625 72.5 C-90.98433594 72.83386719 -90.34367187 73.16773437 -89.68359375 73.51171875 C-88.11666329 74.33026451 -86.55749759 75.16364513 -85 76 C-85 76.66 -85 77.32 -85 78 C-84.21625 78.144375 -83.4325 78.28875 -82.625 78.4375 C-80 79 -80 79 -78 80 C-78 80.66 -78 81.32 -78 82 C-76.68 82 -75.36 82 -74 82 C-74 82.66 -74 83.32 -74 84 C-73.443125 84.268125 -72.88625 84.53625 -72.3125 84.8125 C-69.78774666 86.10899496 -67.36285516 87.42476323 -65 89 C-65 89.66 -65 90.32 -65 91 C-63.02 91.99 -63.02 91.99 -61 93 C-60.81824219 92.35933594 -60.63648438 91.71867187 -60.44921875 91.05859375 C-58.93729955 85.85604103 -57.24999329 80.92855673 -55 76 C-54.34 76 -53.68 76 -53 76 C-53 73.69 -53 71.38 -53 69 C-52.34 69 -51.68 69 -51 69 C-51 67.68 -51 66.36 -51 65 C-50.34 65 -49.68 65 -49 65 C-48.855625 64.2575 -48.71125 63.515 -48.5625 62.75 C-48.09812508 60.47972261 -47.58136431 58.24240521 -47 56 C-46.34 56 -45.68 56 -45 56 C-43.25150329 51.6960081 -41.6229639 47.35249409 -40 43 C-39.34 43 -38.68 43 -38 43 C-37.690625 42.21625 -37.38125 41.4325 -37.0625 40.625 C-36 38 -36 38 -35 36 C-34.34 36 -33.68 36 -33 36 C-33 35.01 -33 34.02 -33 33 C-32.34 33 -31.68 33 -31 33 C-30.773125 32.29875 -30.54625 31.5975 -30.3125 30.875 C-28.66158712 27.25871465 -26.7091165 24.91230024 -24 22 C-23.34 22 -22.68 22 -22 22 C-21.7834375 21.071875 -21.7834375 21.071875 -21.5625 20.125 C-21 18 -21 18 -20 16 C-19.34 16 -18.68 16 -18 16 C-17.67 15.01 -17.34 14.02 -17 13 C-16.34 13 -15.68 13 -15 13 C-15 12.34 -15 11.68 -15 11 C-14.34 11 -13.68 11 -13 11 C-13 10.34 -13 9.68 -13 9 C-11.7934375 8.5978125 -11.7934375 8.5978125 -10.5625 8.1875 C-9.716875 7.795625 -8.87125 7.40375 -8 7 C-7.67 6.01 -7.34 5.02 -7 4 C-6.01 4 -5.02 4 -4 4 C-4 3.34 -4 2.68 -4 2 C-2.68 2 -1.36 2 0 2 C0 1.34 0 0.68 0 0 Z " fill="#99FEAD" transform="translate(259,8)"/>
<path d="M0 0 C0 0.66 0 1.32 0 2 C0.639375 2.103125 1.27875 2.20625 1.9375 2.3125 C2.618125 2.539375 3.29875 2.76625 4 3 C4.495 4.485 4.495 4.485 5 6 C5.66 6 6.32 6 7 6 C9.09271776 12.67053787 11.25000775 22.4999845 8 29 C7.77141886 31.0374763 7.58975722 33.08040303 7.4375 35.125 C7.31181641 36.76855469 7.31181641 36.76855469 7.18359375 38.4453125 C7.12300781 39.28835937 7.06242187 40.13140625 7 41 C6.34 41 5.68 41 5 41 C5.061875 42.134375 5.12375 43.26875 5.1875 44.4375 C5.21380222 49.33847991 3.76012394 53.473967 2 58 C1.34 58 0.68 58 0 58 C0.04125 59.051875 0.0825 60.10375 0.125 61.1875 C0.00852125 64.74010173 -0.47208068 66.84866641 -2 70 C-2.66 70 -3.32 70 -4 70 C-4 72.31 -4 74.62 -4 77 C-4.66 77 -5.32 77 -6 77 C-6.0825 77.845625 -6.165 78.69125 -6.25 79.5625 C-7.01595468 83.0731256 -8.16794075 85.24351962 -10.01171875 88.25390625 C-11.40512348 90.71577152 -12.20813309 93.29445472 -13 96 C-13.66 96 -14.32 96 -15 96 C-15.185625 96.86625 -15.185625 96.86625 -15.375 97.75 C-16.00648824 100.02335767 -16.88858191 101.9253529 -18 104 C-18.66 104 -19.32 104 -20 104 C-20 105.32 -20 106.64 -20 108 C-20.66 108 -21.32 108 -22 108 C-22 108.66 -22 109.32 -22 110 C-22.66 110 -23.32 110 -24 110 C-24.0928125 111.0828125 -24.0928125 111.0828125 -24.1875 112.1875 C-25.24517914 115.84869702 -27.27166143 117.40807836 -30 120 C-30.495 121.485 -30.495 121.485 -31 123 C-31.66 123 -32.32 123 -33 123 C-33 123.99 -33 124.98 -33 126 C-33.66 126 -34.32 126 -35 126 C-35 126.66 -35 127.32 -35 128 C-35.66 128 -36.32 128 -37 128 C-37.33 129.32 -37.66 130.64 -38 132 C-38.66 132 -39.32 132 -40 132 C-40 132.66 -40 133.32 -40 134 C-42.33984375 133.76171875 -42.33984375 133.76171875 -45 133 C-46.44140625 131.14453125 -46.44140625 131.14453125 -47.5625 128.8125 C-49.00795865 125.93530541 -50.43852107 123.24461139 -52.3125 120.625 C-54 118 -54 118 -54 115 C-54.66 115 -55.32 115 -56 115 C-58.14302625 112.58045423 -59.89586058 110.18224399 -61.5 107.375 C-62.84796033 104.92861552 -62.84796033 104.92861552 -65 103.5 C-67 102 -67 102 -68.375 99.6875 C-71.25372205 94.9265366 -74.88809419 91.27195814 -80 89 C-80.495 88.01 -80.495 88.01 -81 87 C-83.01669827 85.86649466 -83.01669827 85.86649466 -85 85 C-85 84.34 -85 83.68 -85 83 C-85.99 83 -86.98 83 -88 83 C-88 82.34 -88 81.68 -88 81 C-88.598125 80.773125 -89.19625 80.54625 -89.8125 80.3125 C-92.56085774 78.66348536 -93.39211876 76.72640732 -95 74 C-95.99 73.67 -96.98 73.34 -98 73 C-98.20572596 66.34819398 -98.0081741 60.28542111 -96.51171875 53.80078125 C-95.44192523 47.94549914 -95.30077186 41.93628676 -95 36 C-94.01 36 -93.02 36 -92 36 C-92.02094727 35.44538086 -92.04189453 34.89076172 -92.06347656 34.31933594 C-92.14683548 31.79640977 -92.19871868 29.27377351 -92.25 26.75 C-92.30027344 25.44095703 -92.30027344 25.44095703 -92.3515625 24.10546875 C-92.44989203 17.66488468 -92.44989203 17.66488468 -90.234375 14.390625 C-88 13 -88 13 -84 13 C-84 12.34 -84 11.68 -84 11 C-80.1037593 8.17598058 -75.79515984 6.79372041 -71.25 5.375 C-66.77955557 4.27721282 -66.77955557 4.27721282 -63 2 C-60.66702567 1.95907063 -58.33294775 1.95758277 -56 2 C-56 1.34 -56 0.68 -56 0 C-55.08476562 -0.13277344 -54.16953125 -0.26554687 -53.2265625 -0.40234375 C-52.03804688 -0.57894531 -50.84953125 -0.75554687 -49.625 -0.9375 C-48.44164062 -1.11152344 -47.25828125 -1.28554687 -46.0390625 -1.46484375 C-43.09297619 -1.83462786 -43.09297619 -1.83462786 -41 -3 C-27.18122285 -4.33443127 -13.11637722 -5.201322 0 0 Z " fill="#5BD469" transform="translate(394,104)"/>
<path d="M0 0 C1.34868164 -0.00483398 1.34868164 -0.00483398 2.72460938 -0.00976562 C11.04851039 0.05644038 18.36038947 1.17925816 25.6875 5.3125 C25.6875 5.9725 25.6875 6.6325 25.6875 7.3125 C26.52539062 7.2403125 27.36328125 7.168125 28.2265625 7.09375 C32.42040637 7.35882365 35.4391411 8.85331429 39.0625 10.8125 C39.70316406 11.14636719 40.34382813 11.48023437 41.00390625 11.82421875 C42.57083671 12.64276451 44.13000241 13.47614513 45.6875 14.3125 C45.6875 14.9725 45.6875 15.6325 45.6875 16.3125 C46.863125 16.5290625 46.863125 16.5290625 48.0625 16.75 C50.6875 17.3125 50.6875 17.3125 52.6875 18.3125 C52.6875 18.9725 52.6875 19.6325 52.6875 20.3125 C54.0075 20.3125 55.3275 20.3125 56.6875 20.3125 C56.6875 20.9725 56.6875 21.6325 56.6875 22.3125 C57.244375 22.580625 57.80125 22.84875 58.375 23.125 C60.89975334 24.42149496 63.32464484 25.73726323 65.6875 27.3125 C65.6875 27.9725 65.6875 28.6325 65.6875 29.3125 C66.30625 29.539375 66.925 29.76625 67.5625 30 C69.6875 31.3125 69.6875 31.3125 71 33.375 C71.95634569 37.4612043 71.52489433 41.21857216 70.6875 45.3125 C70.3575 45.6425 70.0275 45.9725 69.6875 46.3125 C69.47861292 48.30853206 69.31974523 50.30992941 69.1875 52.3125 C68.79861111 58.20138889 68.79861111 58.20138889 67.6875 59.3125 C67.52778023 61.68588639 67.4282567 64.03368272 67.37109375 66.41015625 C67.3399221 67.47344398 67.3399221 67.47344398 67.30812073 68.55821228 C67.24255402 70.83037305 67.1837077 73.10265264 67.125 75.375 C67.08182151 76.91212183 67.03820745 78.4492315 66.99414062 79.98632812 C66.88686551 83.7615959 66.78561863 87.5369836 66.6875 91.3125 C66.13320312 91.50585938 65.57890625 91.69921875 65.0078125 91.8984375 C64.28335938 92.15882813 63.55890625 92.41921875 62.8125 92.6875 C62.09320313 92.94273437 61.37390625 93.19796875 60.6328125 93.4609375 C58.50592006 94.25127783 58.50592006 94.25127783 56.6875 96.3125 C53.99910615 96.58241906 51.39608064 96.39987357 48.6875 96.3125 C48.6875 96.9725 48.6875 97.6325 48.6875 98.3125 C47.3675 98.3125 46.0475 98.3125 44.6875 98.3125 C44.6875 98.9725 44.6875 99.6325 44.6875 100.3125 C43.3675 100.3125 42.0475 100.3125 40.6875 100.3125 C40.6875 101.3025 40.6875 102.2925 40.6875 103.3125 C39.3675 103.3125 38.0475 103.3125 36.6875 103.3125 C36.6875 103.9725 36.6875 104.6325 36.6875 105.3125 C34.04857824 107.09555524 31.71571137 108.30309621 28.6875 109.3125 C28.1925 110.7975 28.1925 110.7975 27.6875 112.3125 C26.04771682 113.35599839 24.37285024 114.34432008 22.6875 115.3125 C17.94260982 118.61954467 13.67425064 122.10426321 9.6875 126.3125 C8.6046875 127.3025 8.6046875 127.3025 7.5 128.3125 C5.49475553 130.52518355 4.62579825 132.49760525 3.6875 135.3125 C0.4375 135.6875 0.4375 135.6875 -3.3125 135.3125 C-6.01698323 132.19194243 -7.3125 130.47975696 -7.3125 126.3125 C-7.9725 126.3125 -8.6325 126.3125 -9.3125 126.3125 C-9.56773438 125.15234375 -9.56773438 125.15234375 -9.828125 123.96875 C-11.15376583 118.27131494 -12.62833366 113.24666606 -15.3984375 108.09765625 C-18.11742757 102.78749188 -18.63357453 97.19920738 -19.06640625 91.3515625 C-19.09869224 89.32054547 -19.09869224 89.32054547 -20.3125 88.3125 C-20.38429964 86.79321962 -20.39642007 85.27082518 -20.375 83.75 C-20.36597656 82.92371094 -20.35695313 82.09742188 -20.34765625 81.24609375 C-20.33605469 80.60800781 -20.32445313 79.96992188 -20.3125 79.3125 C-20.9725 79.3125 -21.6325 79.3125 -22.3125 79.3125 C-22.3125 74.0325 -22.3125 68.7525 -22.3125 63.3125 C-22.9725 63.3125 -23.6325 63.3125 -24.3125 63.3125 C-24.3125 53.0825 -24.3125 42.8525 -24.3125 32.3125 C-23.6525 32.3125 -22.9925 32.3125 -22.3125 32.3125 C-22.33570312 31.38308594 -22.35890625 30.45367187 -22.3828125 29.49609375 C-22.56206063 17.21759666 -22.56206063 17.21759666 -20.3125 11.3125 C-19.6525 11.3125 -18.9925 11.3125 -18.3125 11.3125 C-18.168125 10.549375 -18.02375 9.78625 -17.875 9 C-16.74738188 3.61249122 -16.74738188 3.61249122 -13.89453125 1.64453125 C-9.15341735 -0.11852201 -5.01304831 -0.08869512 0 0 Z " fill="#5AD369" transform="translate(128.3125,69.6875)"/>
<path d="M0 0 C0 0.66 0 1.32 0 2 C0.556875 2.226875 1.11375 2.45375 1.6875 2.6875 C5.88379476 5.06918081 8.5115025 7.59470967 10.109375 12.19140625 C11.92426981 19.95246959 12.88026057 28.14786524 9.31640625 35.44921875 C4.22892857 42.59035714 4.22892857 42.59035714 0 44 C0 44.99 0 45.98 0 47 C-1.65 47.66 -3.3 48.32 -5 49 C-5.0928125 50.8871875 -5.0928125 50.8871875 -5.1875 52.8125 C-5.59556848 56.20306895 -5.66742865 56.72712095 -8.4375 59 C-11 60 -11 60 -13 60 C-13 60.66 -13 61.32 -13 62 C-16.18732254 62.08797281 -19.37432788 62.14071341 -22.5625 62.1875 C-23.45775391 62.21263672 -24.35300781 62.23777344 -25.27539062 62.26367188 C-31.04236911 62.32704526 -34.85462 61.59921258 -40 59 C-42.77888613 58.30859478 -42.77888613 58.30859478 -45 58 C-45 57.34 -45 56.68 -45 56 C-46.32 55.67 -47.64 55.34 -49 55 C-49.77461001 46.94405594 -49.77461001 46.94405594 -47 43.5625 C-43.33137776 41.65175925 -40.05075066 40.82388149 -36 40 C-36.6496875 39.06285156 -37.299375 38.12570312 -37.96875 37.16015625 C-40.69762936 32.36894801 -40.59120504 27.83759856 -40.5 22.4375 C-40.51546875 21.51775391 -40.5309375 20.59800781 -40.546875 19.65039062 C-40.51296923 13.75502519 -39.77524831 10.5516673 -36 6 C-35.46375 5.21625 -34.9275 4.4325 -34.375 3.625 C-33.92125 3.08875 -33.4675 2.5525 -33 2 C-32.34 2 -31.68 2 -31 2 C-31 1.01 -31 0.02 -31 -1 C-20.62539702 -3.05454494 -9.9304518 -4.45409971 0 0 Z " fill="#FBFBF9" transform="translate(173,269)"/>
<path d="M0 0 C0.76199707 0.00088623 1.52399414 0.00177246 2.30908203 0.00268555 C8.91442377 0.14221507 13.36985155 1.3609045 18.4453125 5.88671875 C19.75 7.375 19.75 7.375 19.75 9.375 C20.41 9.375 21.07 9.375 21.75 9.375 C27.53640367 15.5230539 28.07453084 21.38143359 27.953125 29.515625 C27.72512928 32.72510323 27.05777709 35.43250156 25.75 38.375 C25.09 38.375 24.43 38.375 23.75 38.375 C23.75 39.695 23.75 41.015 23.75 42.375 C22.76 42.87 22.76 42.87 21.75 43.375 C21.42 44.365 21.09 45.355 20.75 46.375 C21.34167969 46.41238281 21.93335938 46.44976562 22.54296875 46.48828125 C27.28612478 46.88289945 30.9156695 47.28279798 34.75 50.375 C34.75 51.035 34.75 51.695 34.75 52.375 C35.41 52.375 36.07 52.375 36.75 52.375 C37.11471664 58.81832724 37.11471664 58.81832724 35.5625 61.1875 C29.65190069 65.05996162 23.76326552 64.74175134 16.9375 64.75 C15.35485352 64.78673828 15.35485352 64.78673828 13.74023438 64.82421875 C6.92662433 64.84969019 2.56704704 63.96848941 -3.25 60.375 C-5.21822886 58.40677114 -4.91248381 55.02691291 -5.25 52.375 C-6.00925781 52.20484375 -6.76851563 52.0346875 -7.55078125 51.859375 C-8.54464844 51.61703125 -9.53851563 51.3746875 -10.5625 51.125 C-11.54863281 50.89296875 -12.53476562 50.6609375 -13.55078125 50.421875 C-16.6194916 49.23169501 -17.64217247 48.20653244 -19.25 45.375 C-19.25 44.715 -19.25 44.055 -19.25 43.375 C-19.91 43.375 -20.57 43.375 -21.25 43.375 C-25.33951303 35.4515685 -26.00077307 28.22427603 -25.25 19.375 C-24.92 19.045 -24.59 18.715 -24.25 18.375 C-24.1675 17.3025 -24.085 16.23 -24 15.125 C-23.09182367 10.58411833 -21.8694984 9.19016542 -18.25 6.375 C-14.9375 5.0625 -14.9375 5.0625 -12.25 4.375 C-12.25 3.715 -12.25 3.055 -12.25 2.375 C-8.42461665 -0.14169958 -4.42292803 -0.00908493 0 0 Z " fill="#FBFBF5" transform="translate(289.25,270.625)"/>
<path d="M0 0 C4.6718394 1.38486668 7.28978757 5.96384626 10.1875 9.6484375 C11.074375 10.4940625 11.96125 11.3396875 12.875 12.2109375 C14.92578429 14.372575 16.19719425 16.23115123 17.6875 18.7734375 C19.75763994 22.22798352 21.5340168 23.8216959 25.1875 25.6484375 C28.18973862 27.88266159 30.09928461 29.51611441 32.1875 32.6484375 C35.25306598 33.38187178 35.25306598 33.38187178 38.1875 33.6484375 C38.5278125 32.7203125 38.5278125 32.7203125 38.875 31.7734375 C40.1875 29.6484375 40.1875 29.6484375 42.625 28.7109375 C45.91261151 27.34778151 46.50703908 25.70382099 48.1875 22.6484375 C49.1775 21.9884375 50.1675 21.3284375 51.1875 20.6484375 C51.6825 19.4728125 52.1775 18.2971875 52.6875 17.0859375 C53.1825 15.9515625 53.6775 14.8171875 54.1875 13.6484375 C55.6725 13.1534375 55.6725 13.1534375 57.1875 12.6484375 C57.5175 11.6584375 57.8475 10.6684375 58.1875 9.6484375 C59.64492463 9.56746947 61.10362807 9.50925976 62.5625 9.4609375 C63.78066406 9.40873047 63.78066406 9.40873047 65.0234375 9.35546875 C65.73757812 9.45214844 66.45171875 9.54882812 67.1875 9.6484375 C69.1875 12.6484375 69.1875 12.6484375 69.1875 16.6484375 C68.5275 16.6484375 67.8675 16.6484375 67.1875 16.6484375 C67.166875 17.6796875 67.14625 18.7109375 67.125 19.7734375 C65.87859192 24.92525756 63.43482739 26.72110403 59.1875 29.6484375 C58.259375 30.1846875 57.33125 30.7209375 56.375 31.2734375 C53.83659083 32.86900898 53.46717984 34.00909784 52.1875 36.6484375 C51.3625 37.2671875 50.5375 37.8859375 49.6875 38.5234375 C46.73715983 41.03122665 46.11276214 42.94738894 45.1875 46.6484375 C46.1775 46.9784375 47.1675 47.3084375 48.1875 47.6484375 C48.1875 48.3084375 48.1875 48.9684375 48.1875 49.6484375 C48.8475 49.6484375 49.5075 49.6484375 50.1875 49.6484375 C52.1875 52.6484375 52.1875 52.6484375 52.1875 55.6484375 C52.785625 55.9371875 53.38375 56.2259375 54 56.5234375 C58.20076623 58.68383156 59.84651518 60.6492551 62.1875 64.6484375 C62.744375 65.2053125 63.30125 65.7621875 63.875 66.3359375 C64.308125 66.7690625 64.74125 67.2021875 65.1875 67.6484375 C65.1875 68.3084375 65.1875 68.9684375 65.1875 69.6484375 C65.74953125 69.89207031 66.3115625 70.13570313 66.890625 70.38671875 C71.62717902 72.98860132 77.13774648 77.47531891 78.875 82.7265625 C78.9375 84.5859375 78.9375 84.5859375 78.1875 87.6484375 C75.1875 89.6484375 75.1875 89.6484375 71.1875 89.6484375 C71.1875 88.9884375 71.1875 88.3284375 71.1875 87.6484375 C69.2075 87.1534375 69.2075 87.1534375 67.1875 86.6484375 C66.8575 85.3284375 66.5275 84.0084375 66.1875 82.6484375 C65.1975 82.6484375 64.2075 82.6484375 63.1875 82.6484375 C62.92324219 82.04644531 62.65898437 81.44445312 62.38671875 80.82421875 C61.12161659 78.5289031 60.02980067 77.46246652 58 75.8359375 C55.00183226 73.32827882 52.21998843 70.6965883 49.5 67.89453125 C48.51422974 66.88193237 48.51422974 66.88193237 47.50854492 65.84887695 C46.18280991 64.47898837 44.86505048 63.10133031 43.5559082 61.71557617 C42.93546631 61.07724854 42.31502441 60.4389209 41.67578125 59.78125 C41.12446533 59.20262207 40.57314941 58.62399414 40.00512695 58.02783203 C37.77934747 56.33869112 35.92864128 56.0138448 33.1875 55.6484375 C32.6925 56.6384375 32.6925 56.6384375 32.1875 57.6484375 C31.5275 57.6484375 30.8675 57.6484375 30.1875 57.6484375 C29.8575 58.9684375 29.5275 60.2884375 29.1875 61.6484375 C28.1975 61.6484375 27.2075 61.6484375 26.1875 61.6484375 C25.919375 62.2878125 25.65125 62.9271875 25.375 63.5859375 C24.1875 65.6484375 24.1875 65.6484375 21.1875 66.6484375 C20.0374169 68.61516665 20.0374169 68.61516665 19.1875 70.6484375 C18.1875 71.6484375 18.1875 71.6484375 15.3125 71.8359375 C12.1875 71.6484375 12.1875 71.6484375 9.1875 69.6484375 C8.49740876 65.16284442 8.78592252 63.23359325 11.375 59.4609375 C14.1875 56.6484375 14.1875 56.6484375 16.9375 54.4609375 C19.4456635 52.77463335 19.4456635 52.77463335 20.1875 49.6484375 C22.25 48.4609375 22.25 48.4609375 24.1875 47.6484375 C23.33552557 40.40665486 18.72647835 35.9666215 13.578125 31.26171875 C12.1875 29.6484375 12.1875 29.6484375 12.1875 26.6484375 C11.1975 26.3184375 10.2075 25.9884375 9.1875 25.6484375 C9.1875 24.6584375 9.1875 23.6684375 9.1875 22.6484375 C8.40375 22.3803125 7.62 22.1121875 6.8125 21.8359375 C4.1875 20.6484375 4.1875 20.6484375 2.1875 17.6484375 C0.12824861 16.92461283 0.12824861 16.92461283 -1.8125 16.6484375 C-1.8125 15.9884375 -1.8125 15.3284375 -1.8125 14.6484375 C-3.1325 13.9884375 -4.4525 13.3284375 -5.8125 12.6484375 C-5.8125 11.9884375 -5.8125 11.3284375 -5.8125 10.6484375 C-6.8025 10.3184375 -7.7925 9.9884375 -8.8125 9.6484375 C-9 6.2734375 -9 6.2734375 -8.8125 2.6484375 C-5.73368304 0.59589286 -3.70078842 -0.0680292 0 0 Z " fill="#FFCF3B" transform="translate(114.8125,363.3515625)"/>
<path d="M0 0 C2 2 2 2 2.5625 4.25 C1.66997724 8.61344461 -1.61041982 10.34881384 -5 13 C-8.66529395 16.28483163 -8.66529395 16.28483163 -11 20.5 C-12.33849726 23.84624314 -14.28068478 25.67863335 -17 28 C-17.99 28 -18.98 28 -20 28 C-20.07476562 28.56203125 -20.14953125 29.1240625 -20.2265625 29.703125 C-21.27821627 32.82621803 -23.04378707 34.44142021 -25.375 36.75 C-26.16648437 37.54921875 -26.95796875 38.3484375 -27.7734375 39.171875 C-30 41 -30 41 -33 41 C-31.35352418 46.07663377 -29.19036367 47.77831201 -24.6328125 50.3203125 C-20.07116071 53.23056512 -14.78882474 57.69416196 -13.48828125 63.14453125 C-13.5 65.0625 -13.5 65.0625 -14 68 C-15.485 68.495 -15.485 68.495 -17 69 C-17 69.66 -17 70.32 -17 71 C-19.31 71 -21.62 71 -24 71 C-24 70.34 -24 69.68 -24 69 C-24.66 69 -25.32 69 -26 69 C-29 64.61538462 -29 64.61538462 -29 62 C-30.32 62 -31.64 62 -33 62 C-33 61.01 -33 60.02 -33 59 C-33.66 59 -34.32 59 -35 59 C-35 58.01 -35 57.02 -35 56 C-37.07553648 55.4465236 -38.84365964 55 -41 55 C-41.763125 55.763125 -42.52625 56.52625 -43.3125 57.3125 C-46 60 -46 60 -48.5625 61.5 C-51.43012631 63.26469311 -52.9597064 65.34761832 -55 68 C-56.485 68.99 -56.485 68.99 -58 70 C-58.33 70.99 -58.66 71.98 -59 73 C-60.7421875 74.71875 -60.7421875 74.71875 -62.875 76.5 C-65.84092516 78.98541108 -65.84092516 78.98541108 -68.5703125 81.71875 C-70 83 -70 83 -73 83 C-73 83.99 -73 84.98 -73 86 C-76 88 -76 88 -78.5625 87.8125 C-81 87 -81 87 -83 84 C-82.625 80.3125 -82.625 80.3125 -82 77 C-81.34 77 -80.68 77 -80 77 C-80 76.34 -80 75.68 -80 75 C-79.01 75 -78.02 75 -77 75 C-76.34 73.68 -75.68 72.36 -75 71 C-74.34 71 -73.68 71 -73 71 C-72.34 69.02 -71.68 67.04 -71 65 C-70.34 65 -69.68 65 -69 65 C-68.773125 64.443125 -68.54625 63.88625 -68.3125 63.3125 C-66.62632969 60.34162851 -64.44612884 58.39177042 -62 56 C-60.19462151 53.94067816 -58.41617689 51.86122288 -56.6484375 49.76953125 C-55 48 -55 48 -52 46 C-51.26656572 42.93443402 -51.26656572 42.93443402 -51 40 C-51.556875 39.79375 -52.11375 39.5875 -52.6875 39.375 C-56.53110332 37.08961424 -59.38100162 33.81903768 -60.828125 29.56640625 C-62.32647431 26.28502127 -64.28141617 24.93737218 -67.125 22.75 C-71.81087543 18.74411511 -71.81087543 18.74411511 -72.65625 15.41796875 C-72.625 12.9375 -72.625 12.9375 -72 9 C-69.69 9 -67.38 9 -65 9 C-64.87625 9.928125 -64.87625 9.928125 -64.75 10.875 C-64.20721701 13.15354435 -64.20721701 13.15354435 -62.125 14.0625 C-61.42375 14.371875 -60.7225 14.68125 -60 15 C-58.25 16.5 -58.25 16.5 -57 18 C-57 18.66 -57 19.32 -57 20 C-56.443125 20.04125 -55.88625 20.0825 -55.3125 20.125 C-52.38561305 21.23247074 -51.23580713 23.08454371 -49.36328125 25.5078125 C-47.29641945 27.77010823 -44.76623423 28.77056256 -42 30 C-41.34 30.66 -40.68 31.32 -40 32 C-39.34 32 -38.68 32 -38 32 C-38 31.34 -38 30.68 -38 30 C-36.3203125 28.4921875 -36.3203125 28.4921875 -34.125 26.875 C-33.40570313 26.33617187 -32.68640625 25.79734375 -31.9453125 25.2421875 C-30 24 -30 24 -28 24 C-28 23.34 -28 22.68 -28 22 C-27.34 22 -26.68 22 -26 22 C-25.75088867 21.42926758 -25.50177734 20.85853516 -25.24511719 20.27050781 C-22.78140552 15.77785713 -18.82548879 12.37074815 -15.25 8.75 C-14.45078125 7.90953125 -13.6515625 7.0690625 -12.828125 6.203125 C-12.044375 5.4090625 -11.260625 4.615 -10.453125 3.796875 C-9.74317383 3.06823242 -9.03322266 2.33958984 -8.30175781 1.58886719 C-5.33510117 -0.4589692 -3.53338209 -0.44970318 0 0 Z " fill="#FFCE3A" transform="translate(346,365)"/>
<path d="M0 0 C0 0.66 0 1.32 0 2 C0.66 2 1.32 2 2 2 C2 2.66 2 3.32 2 4 C2.66 4 3.32 4 4 4 C7.04395069 6.73955562 9.44396229 9.18063472 11 13 C11.66 13 12.32 13 13 13 C13 13.66 13 14.32 13 15 C13.66 15 14.32 15 15 15 C15 15.66 15 16.32 15 17 C15.66 17 16.32 17 17 17 C17 17.66 17 18.32 17 19 C17.99 19.33 18.98 19.66 20 20 C20 20.66 20 21.32 20 22 C20.66 22 21.32 22 22 22 C22 22.66 22 23.32 22 24 C22.66 24 23.32 24 24 24 C24 24.66 24 25.32 24 26 C25.32 26 26.64 26 28 26 C28 25.34 28 24.68 28 24 C28.66 24 29.32 24 30 24 C30.226875 23.443125 30.45375 22.88625 30.6875 22.3125 C32.37550036 19.33840412 34.46676517 17.27991135 37 15 C37.66 15 38.32 15 39 15 C39 14.34 39 13.68 39 13 C39.66 13 40.32 13 41 13 C41 12.34 41 11.68 41 11 C41.66 11 42.32 11 43 11 C43 10.34 43 9.68 43 9 C43.969375 8.5875 44.93875 8.175 45.9375 7.75 C49.12870121 6.37793214 49.12870121 6.37793214 49.6875 3.9375 C49.790625 3.298125 49.89375 2.65875 50 2 C53.47351075 -0.31567384 54.91399472 -0.59587577 59 0 C61.70361469 3.24433763 62 4.70892052 62 9 C59.625 11.75 59.625 11.75 57 14 C56.34 14 55.68 14 55 14 C55 14.66 55 15.32 55 16 C54.34 16 53.68 16 53 16 C53 16.66 53 17.32 53 18 C51.01739574 19.68732277 49.0167658 21.35366057 47 23 C46.67 23.66 46.34 24.32 46 25 C45.34 25 44.68 25 44 25 C44 25.66 44 26.32 44 27 C43.34 27 42.68 27 42 27 C42 27.66 42 28.32 42 29 C40.04072937 30.7143618 38.04119788 32.38405168 36 34 C36.27617533 35.94074861 36.27617533 35.94074861 37 38 C37.99 38.66 38.98 39.32 40 40 C40 40.66 40 41.32 40 42 C40.66 42 41.32 42 42 42 C42 42.66 42 43.32 42 44 C42.66 44 43.32 44 44 44 C50.84006293 50.32705821 50.84006293 50.32705821 51.1953125 54.04296875 C51.13020833 56.02864583 51.06510417 58.01432292 51 60 C46.78792204 61.1300697 43.84829718 61.13462331 39.8671875 59.21484375 C35.11011113 56.1197585 31.1434068 51.91928999 28.25 47.0625 C27.17522378 44.80735145 27.17522378 44.80735145 24.8125 44.1875 C23.9153125 44.0946875 23.9153125 44.0946875 23 44 C22.938125 44.721875 22.87625 45.44375 22.8125 46.1875 C21.7446249 49.88399074 19.89180184 51.53138868 17 54 C16.34 54 15.68 54 15 54 C15 54.66 15 55.32 15 56 C14.34 56 13.68 56 13 56 C13 56.66 13 57.32 13 58 C11.375 60.125 11.375 60.125 9 62 C5.85477278 62.31452272 3.84083641 62.42041821 1 61 C1 60.01 1 59.02 1 58 C0.34 58 -0.32 58 -1 58 C-0.125 53.25 -0.125 53.25 1 51 C1.66 51 2.32 51 3 51 C3.268125 50.401875 3.53625 49.80375 3.8125 49.1875 C4.99917406 47.00152146 6.09599113 45.58667406 8 44 C8.66 44 9.32 44 10 44 C10.2475 43.38125 10.495 42.7625 10.75 42.125 C12.20628639 39.64931313 13.37812506 39.04874998 16 38 C12.09287413 30.64541013 6.20679649 25.01180812 -0.06640625 19.66796875 C-2.87913081 17.24163867 -5.46900168 14.72082319 -8 12 C-8 11.34 -8 10.68 -8 10 C-8.66 10 -9.32 10 -10 10 C-10.29296875 3.9453125 -10.29296875 3.9453125 -10 2 C-6.3558226 -0.4294516 -4.28758728 -0.16179575 0 0 Z " fill="#FFE045" transform="translate(203,191)"/>
<path d="M0 0 C3.26013033 1.85256664 5.75012034 3.99562897 8 7 C8 7.66 8 8.32 8 9 C8.66 9 9.32 9 10 9 C10.62608696 19.74782609 10.62608696 19.74782609 8.25 24.5 C7.5075 25.325 6.765 26.15 6 27 C4.948125 28.175625 4.948125 28.175625 3.875 29.375 C2 31 2 31 0 31 C0 31.66 0 32.32 0 33 C-13.61756726 34.03279302 -13.61756726 34.03279302 -18.75 30.25 C-21.2582963 28.09068406 -22.86726126 26.12327962 -24 23 C-24.1953125 19.765625 -24.1953125 19.765625 -24.125 16.25 C-24.09792969 14.49429687 -24.09792969 14.49429687 -24.0703125 12.703125 C-24.04710937 11.81109375 -24.02390625 10.9190625 -24 10 C-23.34 10 -22.68 10 -22 10 C-22 11.65 -22 13.3 -22 15 C-21.01 15.33 -20.02 15.66 -19 16 C-18.67 16.66 -18.34 17.32 -18 18 C-14.37 18 -10.74 18 -7 18 C-6.67 15.03 -6.34 12.06 -6 9 C-6.66 9 -7.32 9 -8 9 C-9.625 7.625 -9.625 7.625 -11 6 C-11 5.34 -11 4.68 -11 4 C-12.65 4 -14.3 4 -16 4 C-16 3.34 -16 2.68 -16 2 C-11.08214257 -1.27857162 -5.72726486 -0.90962442 0 0 Z " fill="#090A09" transform="translate(166,276)"/>
<path d="M0 0 C6.03040986 -0.59860686 10.65932831 -0.84422215 15.6875 2.875 C17.63671875 4.4921875 17.63671875 4.4921875 19 6 C19 6.66 19 7.32 19 8 C19.66 8 20.32 8 21 8 C21.82576727 14.19960656 22.37652798 19.85856747 21 26 C19.1875 28.3125 19.1875 28.3125 17 30 C16.46117187 30.52078125 15.92234375 31.0415625 15.3671875 31.578125 C11.98941017 33.60702095 8.76214107 33.47536773 4.9375 33.4375 C4.21755859 33.45748047 3.49761719 33.47746094 2.75585938 33.49804688 C-0.58387484 33.49494591 -2.48817079 33.4717643 -4.99609375 31.16015625 C-6 29 -6 29 -6 26 C-6.66 26 -7.32 26 -8 26 C-8.33 24.35 -8.66 22.7 -9 21 C-8.24074219 20.95101563 -7.48148437 20.90203125 -6.69921875 20.8515625 C-5.70535156 20.77679688 -4.71148437 20.70203125 -3.6875 20.625 C-2.70136719 20.55539062 -1.71523438 20.48578125 -0.69921875 20.4140625 C2.21528433 20.16134528 2.21528433 20.16134528 5 18 C5.43827201 16.09542071 5.43827201 16.09542071 5.3125 14 C5.30863281 13.29875 5.30476563 12.5975 5.30078125 11.875 C5.14912946 9.7583423 5.14912946 9.7583423 3 8 C-1.13997567 7.8028583 -4.07703567 7.69234522 -8 9 C-6.75023244 5.34683329 -6.32901247 4.21934164 -3 2 C-2.01 2 -1.02 2 0 2 C0 1.34 0 0.68 0 0 Z " fill="#090909" transform="translate(286,280)"/>
<path d="M0 0 C3.125 1.375 3.125 1.375 5 3 C5 3.66 5 4.32 5 5 C9.97735667 5.80696444 14.75500765 6.16228817 19.8125 6.1875 C21.11832031 6.20167969 22.42414063 6.21585937 23.76953125 6.23046875 C27.0885274 6.34813625 27.0885274 6.34813625 29 4 C31.625 3.375 31.625 3.375 34 3 C34 3.66 34 4.32 34 5 C32.35 5.66 30.7 6.32 29 7 C28.9071875 8.8871875 28.9071875 8.8871875 28.8125 10.8125 C28.40443152 14.20306895 28.33257135 14.72712095 25.5625 17 C23 18 23 18 21 18 C21 18.66 21 19.32 21 20 C17.81267746 20.08797281 14.62567212 20.14071341 11.4375 20.1875 C10.54224609 20.21263672 9.64699219 20.23777344 8.72460938 20.26367188 C2.95763089 20.32704526 -0.85462 19.59921258 -6 17 C-8.77888613 16.30859478 -8.77888613 16.30859478 -11 16 C-11 15.34 -11 14.68 -11 14 C-12.32 13.67 -13.64 13.34 -15 13 C-15.76487252 5.04532578 -15.76487252 5.04532578 -13.125 1.4375 C-8.69379135 -0.60085598 -4.7996203 -0.66879955 0 0 Z " fill="#FFC4E3" transform="translate(139,311)"/>
<path d="M0 0 C8.19256018 -0.4726477 8.19256018 -0.4726477 11.5625 1.5 C12.036875 1.995 12.51125 2.49 13 3 C11.3125 4.5625 11.3125 4.5625 9 6 C6.5 5.625 6.5 5.625 4 5 C1.82676431 5.14681461 1.82676431 5.14681461 0 6 C-0.66 6.99 -1.32 7.98 -2 9 C-2.92167969 9.45375 -3.84335938 9.9075 -4.79296875 10.375 C-8.32331503 12.16382345 -10.5494966 14.18249122 -13.3125 17 C-14.60607422 18.299375 -14.60607422 18.299375 -15.92578125 19.625 C-18.18050141 21.89839296 -18.18050141 21.89839296 -19 25 C-20.64488294 26.68816933 -22.31337542 28.35353315 -24 30 C-25.785793 32.1046846 -26.86770765 33.43775751 -27.5 36.125 C-28 38 -28 38 -31 40 C-31.70414113 41.65118366 -32.3678052 43.31995477 -33 45 C-33.92209815 46.42003115 -34.88189331 47.81618947 -35.875 49.1875 C-38.62983071 53.19938939 -40.37822343 57.17120326 -42.0625 61.71875 C-43.31024389 64.7549268 -45.18357434 67.27536152 -47 70 C-47.69730806 72.3243602 -48.36912152 74.65673706 -49 77 C-49.99 77.99 -49.99 77.99 -51 79 C-52.67136463 83.28287186 -53.62476783 87.65278011 -54.53515625 92.14453125 C-55 94 -55 94 -56 95 C-56.36760731 97.32817964 -56.70241581 99.6618385 -57 102 C-57.66 102 -58.32 102 -59 102 C-61.3566944 97.56386936 -61.12745301 93.7643982 -60 89 C-59.06421005 86.64018187 -58.06652192 84.30368736 -57 82 C-56.31163487 80.00736409 -55.63718601 78.00958663 -55 76 C-54.34 76 -53.68 76 -53 76 C-53 73.69 -53 71.38 -53 69 C-52.34 69 -51.68 69 -51 69 C-51 67.68 -51 66.36 -51 65 C-50.34 65 -49.68 65 -49 65 C-48.855625 64.2575 -48.71125 63.515 -48.5625 62.75 C-48.09812508 60.47972261 -47.58136431 58.24240521 -47 56 C-46.34 56 -45.68 56 -45 56 C-43.25150329 51.6960081 -41.6229639 47.35249409 -40 43 C-39.34 43 -38.68 43 -38 43 C-37.5359375 41.824375 -37.5359375 41.824375 -37.0625 40.625 C-36 38 -36 38 -35 36 C-34.34 36 -33.68 36 -33 36 C-33 35.01 -33 34.02 -33 33 C-32.34 33 -31.68 33 -31 33 C-30.773125 32.29875 -30.54625 31.5975 -30.3125 30.875 C-28.66158712 27.25871465 -26.7091165 24.91230024 -24 22 C-23.34 22 -22.68 22 -22 22 C-21.855625 21.38125 -21.71125 20.7625 -21.5625 20.125 C-21 18 -21 18 -20 16 C-19.34 16 -18.68 16 -18 16 C-17.67 15.01 -17.34 14.02 -17 13 C-16.34 13 -15.68 13 -15 13 C-15 12.34 -15 11.68 -15 11 C-14.34 11 -13.68 11 -13 11 C-13 10.34 -13 9.68 -13 9 C-12.195625 8.731875 -11.39125 8.46375 -10.5625 8.1875 C-9.2940625 7.5996875 -9.2940625 7.5996875 -8 7 C-7.67 6.01 -7.34 5.02 -7 4 C-6.01 4 -5.02 4 -4 4 C-4 3.34 -4 2.68 -4 2 C-2.68 2 -1.36 2 0 2 C0 1.34 0 0.68 0 0 Z " fill="#8DF2A0" transform="translate(259,8)"/>
<path d="M0 0 C2.85546875 1.40625 2.85546875 1.40625 5 3 C5 3.66 5 4.32 5 5 C5.66 5 6.32 5 7 5 C7.36471664 11.44332724 7.36471664 11.44332724 5.8125 13.8125 C-0.09809931 17.68496162 -5.98673448 17.36675134 -12.8125 17.375 C-14.39514648 17.41173828 -14.39514648 17.41173828 -16.00976562 17.44921875 C-22.82337567 17.47469019 -27.18295296 16.59348941 -33 13 C-34 12 -34 12 -34.0625 8.9375 C-34.041875 7.968125 -34.02125 6.99875 -34 6 C-32.87464844 5.97873047 -32.87464844 5.97873047 -31.7265625 5.95703125 C-26.15550941 5.69742298 -21.87792297 5.24985298 -17 2.4375 C-11.51435845 -0.61992542 -6.16932538 -1.04712736 0 0 Z " fill="#FFC4E2" transform="translate(319,318)"/>
<path d="M0 0 C4.8066595 0.43696905 6.83321712 1.38081956 10 5 C10.66 5.33 11.32 5.66 12 6 C12 6.66 12 7.32 12 8 C12.95712891 7.98259766 12.95712891 7.98259766 13.93359375 7.96484375 C15.17302734 7.95130859 15.17302734 7.95130859 16.4375 7.9375 C17.26121094 7.92589844 18.08492187 7.91429687 18.93359375 7.90234375 C21 8 21 8 22 9 C28.62265251 9.59130826 33.18479052 8.16846206 39 5 C39.33 4.67 39.66 4.34 40 4 C41.99958364 3.95919217 44.00045254 3.95745644 46 4 C46 5.98 46 7.96 46 10 C44.35 10.33 42.7 10.66 41 11 C41 11.66 41 12.32 41 13 C32.45437135 16.93098918 23.61122117 18.54792308 14.375 16 C13.199375 15.505 13.199375 15.505 12 15 C12 14.34 12 13.68 12 13 C10.35 13 8.7 13 7 13 C7 12.34 7 11.68 7 11 C6.4225 10.938125 5.845 10.87625 5.25 10.8125 C1.98453051 9.63330269 0.793726 7.92310904 -1 5 C-0.75 2.1875 -0.75 2.1875 0 0 Z " fill="#3B351B" transform="translate(199,316)"/>
<path d="M0 0 C2.0625 0.4375 2.0625 0.4375 4 1 C3.8826006 8.22668699 3.75776587 15.45321771 3.62768555 22.6796875 C3.58429221 25.13961859 3.54262044 27.59958065 3.50268555 30.05957031 C3.44508943 33.58928784 3.38136443 37.11884876 3.31640625 40.6484375 C3.29969376 41.75367767 3.28298126 42.85891785 3.26576233 43.99765015 C3.24581711 45.01855743 3.22587189 46.03946472 3.20532227 47.09130859 C3.18200584 48.44366104 3.18200584 48.44366104 3.15821838 49.82333374 C3 52 3 52 2 54 C1.34 54 0.68 54 0 54 C0 54.99 0 55.98 0 57 C-0.66 57 -1.32 57 -2 57 C-3.19255392 53.42233823 -3.16220159 50.15402122 -3.16796875 46.4296875 C-3.17296135 45.29794601 -3.17296135 45.29794601 -3.17805481 44.14334106 C-3.18312216 42.53778694 -3.18546319 40.93222227 -3.18530273 39.32666016 C-3.18744853 36.93242487 -3.20548994 34.53868242 -3.22460938 32.14453125 C-3.26268789 21.66928023 -2.73443676 11.34573501 -1 1 C-0.67 0.67 -0.34 0.34 0 0 Z " fill="#FDEA6D" transform="translate(75,330)"/>
<path d="M0 0 C0.66 0.33 1.32 0.66 2 1 C1.34 2.32 0.68 3.64 0 5 C0.99 4.34 1.98 3.68 3 3 C6.48933044 2.45830959 9.81374429 2.40687214 13 4 C14.57902411 7.15804822 14.87749599 10.57292904 14 14 C11.75565048 16.3389591 10.44123841 16.95378089 7.203125 17.29296875 C6.22859375 17.25816406 5.2540625 17.22335937 4.25 17.1875 C2.77273438 17.14689453 2.77273438 17.14689453 1.265625 17.10546875 C0.51796875 17.07066406 -0.2296875 17.03585937 -1 17 C-0.67 18.65 -0.34 20.3 0 22 C0.66 22 1.32 22 2 22 C5 26.38461538 5 26.38461538 5 29 C9.62 29 14.24 29 19 29 C13.71473829 31.64263085 9.66383154 31.65595075 4 30 C-0.01039013 26.87843747 -3.13734303 22.74050612 -5 18 C-5.1953125 15.203125 -5.1953125 15.203125 -5.125 12.25 C-5.09792969 10.77273438 -5.09792969 10.77273438 -5.0703125 9.265625 C-5.04710937 8.51796875 -5.02390625 7.7703125 -5 7 C-4.34 7 -3.68 7 -3 7 C-3 6.01 -3 5.02 -3 4 C-2.34 4 -1.68 4 -1 4 C-0.67 2.68 -0.34 1.36 0 0 Z " fill="#595A59" transform="translate(278,284)"/>
<path d="M0 0 C1.18916016 0.02707031 1.18916016 0.02707031 2.40234375 0.0546875 C4.35208348 0.10166918 6.30119878 0.17340956 8.25 0.25 C7.92 0.91 7.59 1.57 7.25 2.25 C6.34636719 2.23839844 5.44273437 2.22679687 4.51171875 2.21484375 C2.74248047 2.20130859 2.74248047 2.20130859 0.9375 2.1875 C-0.23425781 2.17589844 -1.40601563 2.16429687 -2.61328125 2.15234375 C-5.78059195 2.10100102 -5.78059195 2.10100102 -8.75 3.25 C-8.75 3.91 -8.75 4.57 -8.75 5.25 C-7.1 5.25 -5.45 5.25 -3.75 5.25 C-3.75 5.91 -3.75 6.57 -3.75 7.25 C-2.76 7.58 -1.77 7.91 -0.75 8.25 C-0.75 8.91 -0.75 9.57 -0.75 10.25 C-0.09 10.25 0.57 10.25 1.25 10.25 C0.92 13.22 0.59 16.19 0.25 19.25 C-3.45909304 20.48636435 -6.89467855 20.80187061 -10.75 20.25 C-13.78437855 18.22708097 -14.56161043 16.82772802 -15.6875 13.375 C-15.78222685 8.63865771 -13.89783904 5.83579259 -11.18359375 2.0859375 C-7.57414411 -0.63708229 -4.38934402 -0.18925861 0 0 Z " fill="#5F5E5E" transform="translate(158.75,274.75)"/>
<path d="M0 0 C0.33 0 0.66 0 1 0 C1.09796875 0.84304687 1.1959375 1.68609375 1.296875 2.5546875 C1.44640625 3.65039062 1.5959375 4.74609375 1.75 5.875 C1.88921875 6.96554688 2.0284375 8.05609375 2.171875 9.1796875 C2.58179687 10.57574219 2.58179687 10.57574219 3 12 C3.63035156 12.31453125 4.26070313 12.6290625 4.91015625 12.953125 C7 14 7 14 8.44921875 17.1171875 C8.85785156 18.35726562 9.26648438 19.59734375 9.6875 20.875 C10.10386719 22.10992187 10.52023438 23.34484375 10.94921875 24.6171875 C11.71231204 27.07383726 12.42716408 29.49462971 13 32 C13.66 32 14.32 32 15 32 C15 32.99 15 33.98 15 35 C16.32 35 17.64 35 19 35 C19.33 33.68 19.66 32.36 20 31 C20.66 31 21.32 31 22 31 C22 30.34 22 29.68 22 29 C22.66 29 23.32 29 24 29 C24 28.34 24 27.68 24 27 C25.32 26.67 26.64 26.34 28 26 C28.33 24.68 28.66 23.36 29 22 C30.32 22.33 31.64 22.66 33 23 C32.46890625 23.45890625 31.9378125 23.9178125 31.390625 24.390625 C23.73112327 30.60468101 23.73112327 30.60468101 19 39 C15.75 39.375 15.75 39.375 12 39 C9.29551677 35.87944243 8 34.16725696 8 30 C7.34 30 6.68 30 6 30 C5.74476562 28.83984375 5.74476562 28.83984375 5.484375 27.65625 C3.83912073 20.4915117 3.83912073 20.4915117 0.75 13.875 C-1.8013666 9.29413724 -0.94003291 4.98626151 0 0 Z " fill="#76D669" transform="translate(113,166)"/>
<path d="M0 0 C0.33 0 0.66 0 1 0 C1.02740022 1.85408125 1.04657422 3.70828469 1.0625 5.5625 C1.07410156 6.59503906 1.08570313 7.62757812 1.09765625 8.69140625 C1 12 1 12 0.51855469 15.24902344 C0.00575832 18.95834706 -0.23395713 22.5842307 -0.39453125 26.32421875 C-0.46323608 27.69601179 -0.5329263 29.06775577 -0.60351562 30.43945312 C-0.71117294 32.57215183 -0.81317821 34.70442459 -0.89868164 36.83813477 C-0.98416524 38.91807684 -1.09351887 40.99564226 -1.20703125 43.07421875 C-1.29174683 44.92406372 -1.29174683 44.92406372 -1.37817383 46.8112793 C-2.10397905 50.53320393 -3.03729117 51.70848536 -6 54 C-9.44241238 55.6887306 -12.73902807 56.92882584 -16.4375 57.9375 C-20.01999573 59.00596364 -23.02442639 60.43161656 -26.30078125 62.1953125 C-28 63 -28 63 -30 63 C-30 62.01 -30 61.02 -30 60 C-28.68 60 -27.36 60 -26 60 C-26 59.34 -26 58.68 -26 58 C-24.68 58 -23.36 58 -22 58 C-22 57.34 -22 56.68 -22 56 C-20.1128125 55.8453125 -20.1128125 55.8453125 -18.1875 55.6875 C-14.6013372 55.25490344 -13.48713873 54.59527519 -11 52 C-8.67457028 51.6153805 -6.34047332 51.27881927 -4 51 C-4.00785522 49.55379272 -4.00785522 49.55379272 -4.01586914 48.07836914 C-4.03392118 44.51327436 -4.04543274 40.94818364 -4.05493164 37.38305664 C-4.0599714 35.83780234 -4.0668032 34.29255284 -4.07543945 32.74731445 C-4.08752076 30.53074971 -4.09323173 28.31424782 -4.09765625 26.09765625 C-4.10281754 25.4028566 -4.10797882 24.70805695 -4.11329651 23.99220276 C-4.11349277 22.3277067 -4.06189129 20.66334501 -4 19 C-3.67 18.67 -3.34 18.34 -3 18 C-2.81458869 16.10762741 -2.67689299 14.21048989 -2.5625 12.3125 C-2.23715016 7.90978201 -1.71385252 4.11324604 0 0 Z " fill="#78EA89" transform="translate(199,110)"/>
<path d="M0 0 C-1.474364 2.94872801 -3.77472537 2.97605315 -6.73046875 4.00390625 C-10.00449838 5.44087278 -12.58280446 7.53890963 -15.3359375 9.79296875 C-17 11 -17 11 -19 11 C-18.98839844 11.63808594 -18.97679687 12.27617188 -18.96484375 12.93359375 C-18.95582031 13.75988281 -18.94679688 14.58617188 -18.9375 15.4375 C-18.92589844 16.26121094 -18.91429687 17.08492187 -18.90234375 17.93359375 C-19 20 -19 20 -20 21 C-20.20968751 23.32986123 -20.36815389 25.66444036 -20.5 28 C-20.88888889 34.88888889 -20.88888889 34.88888889 -22 36 C-22.18452333 37.39124735 -22.32269658 38.78877264 -22.4375 40.1875 C-22.82196785 44.05048653 -23.72213646 47.32614232 -25 51 C-25.37531446 53.32694964 -25.71917202 55.65976685 -26 58 C-26.66 58 -27.32 58 -28 58 C-27.85866501 56.22880197 -27.71176792 54.45804713 -27.5625 52.6875 C-27.48128906 51.70136719 -27.40007812 50.71523437 -27.31640625 49.69921875 C-27 47 -27 47 -26 44 C-25.77281504 41.43365139 -25.58391816 38.88321893 -25.4375 36.3125 C-25.39431641 35.61060547 -25.35113281 34.90871094 -25.30664062 34.18554688 C-25.2008264 32.45724794 -25.09993419 30.7286489 -25 29 C-24.01 29 -23.02 29 -22 29 C-22.02094727 28.44538086 -22.04189453 27.89076172 -22.06347656 27.31933594 C-22.14683548 24.79640977 -22.19871868 22.27377351 -22.25 19.75 C-22.30027344 18.44095703 -22.30027344 18.44095703 -22.3515625 17.10546875 C-22.44989203 10.66488468 -22.44989203 10.66488468 -20.234375 7.390625 C-18 6 -18 6 -14 6 C-14 5.34 -14 4.68 -14 4 C-5.30260521 -1.96392786 -5.30260521 -1.96392786 0 0 Z " fill="#74E484" transform="translate(324,111)"/>
<path d="M0 0 C1.89488952 1.89488952 1.18019112 4.57139146 1.23046875 7.08984375 C1 9 1 9 -1 11 C-2.875 11.23046875 -2.875 11.23046875 -5 11.1875 C-5.70125 11.18105469 -6.4025 11.17460937 -7.125 11.16796875 C-9 11 -9 11 -11 10 C-11 7.03 -11 4.06 -11 1 C-6.46184454 -1.26907773 -4.82830058 -1.00210012 0 0 Z " fill="#F5F5F5" transform="translate(289,289)"/>
<path d="M0 0 C1 1 1 1 1.09765625 3.06640625 C1.08605469 3.89011719 1.07445312 4.71382813 1.0625 5.5625 C1.05347656 6.38878906 1.04445312 7.21507812 1.03515625 8.06640625 C1.02355469 8.70449219 1.01195312 9.34257812 1 10 C0.34 10 -0.32 10 -1 10 C-1 10.66 -1 11.32 -1 12 C-4.3125 12.25 -4.3125 12.25 -8 12 C-9.9375 10.25 -9.9375 10.25 -11 8 C-11 4 -11 4 -8.875 1.75 C-5.57671165 -0.25765378 -3.79302705 -0.4310258 0 0 Z " fill="#F9F9F9" transform="translate(156,283)"/>
<path d="M0 0 C0.99 0.33 1.98 0.66 3 1 C1.625 3.5 1.625 3.5 0 6 C-0.66 6 -1.32 6 -2 6 C-2 6.99 -2 7.98 -2 9 C-2.66 9 -3.32 9 -4 9 C-4 9.66 -4 10.32 -4 11 C-4.66 11 -5.32 11 -6 11 C-6.33 12.32 -6.66 13.64 -7 15 C-7.66 15 -8.32 15 -9 15 C-9 15.66 -9 16.32 -9 17 C-11.328125 16.77734375 -11.328125 16.77734375 -14 16 C-15.546875 14.00390625 -15.546875 14.00390625 -16.75 11.5625 C-17.15734375 10.75941406 -17.5646875 9.95632812 -17.984375 9.12890625 C-18.31953125 8.42636719 -18.6546875 7.72382813 -19 7 C-19.33 6.34 -19.66 5.68 -20 5 C-16.51866169 6.39253532 -15.52113967 7.63176216 -14 11 C-13.34 11.33 -12.68 11.66 -12 12 C-12 11.34 -12 10.68 -12 10 C-10.390625 8.6328125 -10.390625 8.6328125 -8.25 7.125 C-5.23327463 4.94268803 -2.53516854 2.74643258 0 0 Z " fill="#82D86A" transform="translate(363,221)"/>
<path d="M0 0 C4.8066595 0.43696905 6.83321712 1.38081956 10 5 C10.66 5.33 11.32 5.66 12 6 C12 6.66 12 7.32 12 8 C12.95712891 7.98259766 12.95712891 7.98259766 13.93359375 7.96484375 C15.17302734 7.95130859 15.17302734 7.95130859 16.4375 7.9375 C17.26121094 7.92589844 18.08492187 7.91429687 18.93359375 7.90234375 C21 8 21 8 22 9 C27.08557496 9.25427875 30.29878245 9.01480752 35 7 C35.99 7.33 36.98 7.66 38 8 C32.73276905 11.24727345 28.60050061 11.37334093 22.625 11.1875 C21.37783203 11.16719727 21.37783203 11.16719727 20.10546875 11.14648438 C18.07002934 11.11139059 16.03492709 11.05759228 14 11 C14 10.34 14 9.68 14 9 C13.484375 8.9175 12.96875 8.835 12.4375 8.75 C8.95544268 7.67859775 6.12799115 5.86476395 3 4 C3.33 5.98 3.66 7.96 4 10 C1.4375 7.8125 1.4375 7.8125 -1 5 C-0.8125 2.1875 -0.8125 2.1875 0 0 Z " fill="#8E803D" transform="translate(199,316)"/>
<path d="M0 0 C0.495 0.99 0.495 0.99 1 2 C-0.65 2.66 -2.3 3.32 -4 4 C-4.0928125 5.8871875 -4.0928125 5.8871875 -4.1875 7.8125 C-4.59556848 11.20306895 -4.66742865 11.72712095 -7.4375 14 C-10 15 -10 15 -12 15 C-12 15.66 -12 16.32 -12 17 C-15.18732254 17.08797281 -18.37432788 17.14071341 -21.5625 17.1875 C-22.45775391 17.21263672 -23.35300781 17.23777344 -24.27539062 17.26367188 C-30.04236911 17.32704526 -33.85462 16.59921258 -39 14 C-41.77888613 13.30859478 -41.77888613 13.30859478 -44 13 C-43.67 12.34 -43.34 11.68 -43 11 C-42.40719238 11.21438721 -41.81438477 11.42877441 -41.20361328 11.6496582 C-34.60284963 13.85655164 -28.80004605 14.37716067 -21.875 14.1875 C-20.44027344 14.16719727 -20.44027344 14.16719727 -18.9765625 14.14648438 C-16.6504189 14.11159222 -14.3255347 14.06258339 -12 14 C-12 13.34 -12 12.68 -12 12 C-10.35 11.67 -8.7 11.34 -7 11 C-6.814375 9.081875 -6.814375 9.081875 -6.625 7.125 C-6.25 3.25 -6.25 3.25 -4 1 C-1.875 0.375 -1.875 0.375 0 0 Z " fill="#FFE2B9" transform="translate(172,314)"/>
<path d="M0 0 C1.95258928 3.23679222 2.17783445 5.33020739 1.75 9.0625 C1.61851562 10.34833984 1.61851562 10.34833984 1.484375 11.66015625 C1 14 1 14 -1 17 C-1.39387788 19.32387947 -1.73486085 21.65793749 -2 24 C-2.66 24 -3.32 24 -4 24 C-6.36618914 19.5459969 -6.16812477 15.77121384 -5 11 C-1.85462555 1.85462555 -1.85462555 1.85462555 0 0 Z " fill="#80E892" transform="translate(204,86)"/>
<path d="M0 0 C0.66 0.33 1.32 0.66 2 1 C2.144375 1.639375 2.28875 2.27875 2.4375 2.9375 C2.86165035 5.38210855 2.86165035 5.38210855 6 7 C6 7.66 6 8.32 6 9 C6.66 9 7.32 9 8 9 C8 9.66 8 10.32 8 11 C8.66 11 9.32 11 10 11 C16.84006293 17.32705821 16.84006293 17.32705821 17.1953125 21.04296875 C17.13020833 23.02864583 17.06510417 25.01432292 17 27 C12.79292439 28.1287276 9.86449618 28.12463242 5.87890625 26.234375 C2.07644105 23.73628975 -0.94464742 20.34104788 -4 17 C-3.01 16.67 -2.02 16.34 -1 16 C-1 16.66 -1 17.32 -1 18 C-0.34 18 0.32 18 1 18 C1.639375 18.804375 2.27875 19.60875 2.9375 20.4375 C4.81035932 23.23720732 4.81035932 23.23720732 8 24 C8 24.66 8 25.32 8 26 C10.31 26 12.62 26 15 26 C14.65434409 20.12384946 13.3396794 17.89458407 9 14 C9 13.34 9 12.68 9 12 C8.34 12 7.68 12 7 12 C7 11.34 7 10.68 7 10 C6.401875 9.731875 5.80375 9.46375 5.1875 9.1875 C2.92899048 7.96145198 1.52937348 7.06465419 0 5 C-0.1875 2.3125 -0.1875 2.3125 0 0 Z " fill="#FFEC5A" transform="translate(237,224)"/>
<path d="M0 0 C3.79379058 1.49041773 5.68343758 3.69062512 8 7 C8 7.66 8 8.32 8 9 C8.66 9 9.32 9 10 9 C10 9.66 10 10.32 10 11 C10.66 11 11.32 11 12 11 C12.30078125 13.2109375 12.30078125 13.2109375 12 16 C9.91796875 18.3515625 9.91796875 18.3515625 7.1875 20.625 C6.29417969 21.38039063 5.40085937 22.13578125 4.48046875 22.9140625 C3.66191406 23.60242188 2.84335937 24.29078125 2 25 C1.43925781 25.58523438 0.87851562 26.17046875 0.30078125 26.7734375 C-1 28 -1 28 -3 28 C-3.268125 28.556875 -3.53625 29.11375 -3.8125 29.6875 C-5.11616551 32.22621704 -6.37008027 34.65291559 -8 37 C-8.99 37 -9.98 37 -11 37 C-11 36.34 -11 35.68 -11 35 C-10.34 35 -9.68 35 -9 35 C-8.773125 34.443125 -8.54625 33.88625 -8.3125 33.3125 C-6.62632969 30.34162851 -4.44612884 28.39177042 -2 26 C-0.19462151 23.94067816 1.58382311 21.86122288 3.3515625 19.76953125 C5 18 5 18 8 16 C8.73343428 12.93443402 8.73343428 12.93443402 9 10 C8.1646875 9.690625 8.1646875 9.690625 7.3125 9.375 C4.02987629 7.42316968 2.29326754 5.05769006 0 2 C0 1.34 0 0.68 0 0 Z " fill="#FFE659" transform="translate(286,395)"/>
<path d="M0 0 C1.4370809 -0.05422947 2.87475462 -0.09289723 4.3125 -0.125 C5.11300781 -0.14820313 5.91351563 -0.17140625 6.73828125 -0.1953125 C9 0 9 0 12 2 C12.68268138 3.32520503 13.3507041 4.65812182 14 6 C14.66 6.33 15.32 6.66 16 7 C16 7.66 16 8.32 16 9 C17.32 9.66 18.64 10.32 20 11 C19.67 11.66 19.34 12.32 19 13 C14.99245833 11.66415278 13.62523764 9.23106172 11 6 C10.34 5.67 9.68 5.34 9 5 C8.67 4.01 8.34 3.02 8 2 C5.69 1.67 3.38 1.34 1 1 C0.74286086 6.31420879 0.90189066 8.7671847 4.515625 12.82421875 C7.23229778 15.35158412 10.08739619 17.70158612 13 20 C12.67 20.66 12.34 21.32 12 22 C11.46890625 21.52949219 10.9378125 21.05898438 10.390625 20.57421875 C9.68421875 19.95160156 8.9778125 19.32898438 8.25 18.6875 C7.20585937 17.76517578 7.20585937 17.76517578 6.140625 16.82421875 C4.04747332 14.9808322 4.04747332 14.9808322 1.8203125 13.48046875 C-1.07617188 11.12474433 -1.38177146 8.58572554 -2 5 C-1.125 2.0625 -1.125 2.0625 0 0 Z " fill="#FFE95C" transform="translate(273,373)"/>
<path d="M0 0 C1.00023193 0.00523682 2.00046387 0.01047363 3.03100586 0.01586914 C4.1105957 0.0190918 5.19018555 0.02231445 6.30249023 0.02563477 C8.00695312 0.03820312 8.00695312 0.03820312 9.74584961 0.05102539 C11.45611328 0.05779297 11.45611328 0.05779297 13.20092773 0.06469727 C16.02845312 0.07652792 18.85587601 0.09301129 21.68334961 0.11352539 C21.68334961 0.77352539 21.68334961 1.43352539 21.68334961 2.11352539 C24.65334961 2.11352539 27.62334961 2.11352539 30.68334961 2.11352539 C30.68334961 2.77352539 30.68334961 3.43352539 30.68334961 4.11352539 C30.04010742 4.04133789 29.39686523 3.96915039 28.73413086 3.89477539 C15.01191145 2.48536056 1.4149479 3.30151958 -12.31665039 4.11352539 C-11.98665039 3.45352539 -11.65665039 2.79352539 -11.31665039 2.11352539 C-9.50415039 1.73461914 -9.50415039 1.73461914 -7.31665039 1.55102539 C-4.42996517 1.29844043 -2.69422132 0.13202792 0 0 Z " fill="#BBFF9F" transform="translate(218.316650390625,154.886474609375)"/>
<path d="M0 0 C1.06863281 0.48984375 2.13726562 0.9796875 3.23828125 1.484375 C8.83218785 3.57854836 14.28507514 3.36538033 20.1875 3.25 C21.25419922 3.24484375 22.32089844 3.2396875 23.41992188 3.234375 C28.09505282 3.18759445 32.42537891 3.03256177 37 2 C31.05999847 7.02615514 25.05593102 7.27907034 17.625 7.125 C16.79355469 7.11597656 15.96210938 7.10695313 15.10546875 7.09765625 C13.07018663 7.0742622 11.03505436 7.03839725 9 7 C9 6.34 9 5.68 9 5 C7.68 5 6.36 5 5 5 C5 4.34 5 3.68 5 3 C3.35 2.67 1.7 2.34 0 2 C0 1.34 0 0.68 0 0 Z " fill="#FFE8A4" transform="translate(286,331)"/>
<path d="M0 0 C0.66 0.33 1.32 0.66 2 1 C1.34 2.32 0.68 3.64 0 5 C0.99 4.34 1.98 3.68 3 3 C6.48933044 2.45830959 9.81374429 2.40687214 13 4 C14.63983879 7.27967758 14.17845638 10.37138689 14 14 C12.02 14.99 12.02 14.99 10 16 C10.33 15.34 10.66 14.68 11 14 C11.0689472 12.62657169 11.08467708 11.24997898 11.0625 9.875 C11.041875 8.59625 11.02125 7.3175 11 6 C5.44506076 4.97296252 5.44506076 4.97296252 0 6 C0 8.31 0 10.62 0 13 C-0.33 13 -0.66 13 -1 13 C-1.33 11.35 -1.66 9.7 -2 8 C-2.66 8 -3.32 8 -4 8 C-3.2812193 15.04207705 -3.2812193 15.04207705 -2 22 C-4.96909598 18.72698081 -5.34354794 16.61934238 -5.1875 12.25 C-5.16042969 11.26515625 -5.13335937 10.2803125 -5.10546875 9.265625 C-5.07066406 8.51796875 -5.03585937 7.7703125 -5 7 C-4.34 7 -3.68 7 -3 7 C-3 6.01 -3 5.02 -3 4 C-2.34 4 -1.68 4 -1 4 C-0.67 2.68 -0.34 1.36 0 0 Z " fill="#939393" transform="translate(278,284)"/>
<path d="M0 0 C3.33508481 2.22338987 3.45156387 2.66882299 4.4375 6.3125 C5.64165634 10.30286915 7.27938604 12.81031467 10 16 C10 16.99 10 17.98 10 19 C11.98 18.67 13.96 18.34 16 18 C15.67 18.99 15.34 19.98 15 21 C11.75 21.375 11.75 21.375 8 21 C5.29551677 17.87944243 4 16.16725696 4 12 C3.34 12 2.68 12 2 12 C0.70756464 7.8803623 -0.26252625 4.33168317 0 0 Z " fill="#ACE16C" transform="translate(117,184)"/>
<path d="M0 0 C1.45742463 -0.08096803 2.91612807 -0.13917774 4.375 -0.1875 C5.18710938 -0.22230469 5.99921875 -0.25710938 6.8359375 -0.29296875 C7.55007812 -0.19628906 8.26421875 -0.09960938 9 0 C11 3 11 3 11 7 C10.34 7 9.68 7 9 7 C8.979375 8.03125 8.95875 9.0625 8.9375 10.125 C7.69898432 15.24419815 5.16259426 17.0329289 1 20 C0.67 18.68 0.34 17.36 0 16 C0.66 16 1.32 16 2 16 C2 15.34 2 14.68 2 14 C2.598125 13.62875 3.19625 13.2575 3.8125 12.875 C6.9694701 10.16902563 7.77981108 6.89166316 9 3 C8.34 3 7.68 3 7 3 C7 2.34 7 1.68 7 1 C5.02 1 3.04 1 1 1 C0.87625 1.61875 0.7525 2.2375 0.625 2.875 C0 5 0 5 -2 7 C-2.99 6.67 -3.98 6.34 -5 6 C-4 4 -4 4 -1 3 C-0.67 2.01 -0.34 1.02 0 0 Z " fill="#FFE354" transform="translate(173,373)"/>
<path d="M0 0 C0.33 1.32 0.66 2.64 1 4 C0.34 4 -0.32 4 -1 4 C-1 4.66 -1 5.32 -1 6 C-1.66 6 -2.32 6 -3 6 C-3.144375 6.78375 -3.28875 7.5675 -3.4375 8.375 C-4 11 -4 11 -5 13 C-6.65 13 -8.3 13 -10 13 C-10.66 14.32 -11.32 15.64 -12 17 C-12.6875 15.1875 -12.6875 15.1875 -13 13 C-11.6875 11.25 -11.6875 11.25 -10 10 C-9.34 10 -8.68 10 -8 10 C-7.34 8.02 -6.68 6.04 -6 4 C-5.34 4 -4.68 4 -4 4 C-3.67 3.01 -3.34 2.02 -3 1 C-2.01 0.67 -1.02 0.34 0 0 Z " fill="#74D769" transform="translate(373,208)"/>
<path d="M0 0 C5.25889791 2.23858492 8.81548799 6.34454673 12 11 C12.64752448 13.69801867 12.47288078 15.22182545 12 18 C11.01 18.33 10.02 18.66 9 19 C9 19.66 9 20.32 9 21 C6.69 21 4.38 21 2 21 C2 20.34 2 19.68 2 19 C1.34 19 0.68 19 0 19 C0.495 17.515 0.495 17.515 1 16 C1.7425 16.33 2.485 16.66 3.25 17 C6.13883312 18.22782871 6.13883312 18.22782871 10 18 C8.47856325 11.22269085 5.89637468 5.93091645 0 2 C0 1.34 0 0.68 0 0 Z " fill="#FFE759" transform="translate(320,415)"/>
<path d="M0 0 C2 1.125 2 1.125 3 3 C3.1875 6.1875 3.1875 6.1875 3 9 C2.01 9.33 1.02 9.66 0 10 C0 10.66 0 11.32 0 12 C-1.175625 12.680625 -1.175625 12.680625 -2.375 13.375 C-5.20747474 15.12843674 -5.64576644 16.09807095 -7 19 C-7.99 19.33 -8.98 19.66 -10 20 C-10.66 20.66 -11.32 21.32 -12 22 C-11.5234353 17.71091766 -9.09210861 15.81725451 -6 13 C-5.17628906 12.37931641 -5.17628906 12.37931641 -4.3359375 11.74609375 C-0.86328829 9.20099414 -0.86328829 9.20099414 0.4375 5.25 C0.22514289 3.03876234 0.22514289 3.03876234 -1 2 C-4.21090542 1.4648491 -6.22558511 1.46875139 -8.953125 3.33984375 C-10.69352178 4.84323528 -12.36918839 6.37883817 -14 8 C-10.57768161 0.91728889 -7.81948119 -0.86883124 0 0 Z " fill="#FFE85B" transform="translate(347,364)"/>
<path d="M0 0 C0.66 0.268125 1.32 0.53625 2 0.8125 C3.0209375 1.121875 3.0209375 1.121875 4.0625 1.4375 C7.09314002 3.58827679 7.72357948 6.36616461 9 9.8125 C8.34 9.8125 7.68 9.8125 7 9.8125 C7 8.8225 7 7.8325 7 6.8125 C6.34 6.8125 5.68 6.8125 5 6.8125 C5 5.8225 5 4.8325 5 3.8125 C2.92446352 3.2590236 1.15634036 2.8125 -1 2.8125 C-2.1446875 3.9571875 -2.1446875 3.9571875 -3.3125 5.125 C-6 7.8125 -6 7.8125 -8.5625 9.3125 C-11.42191181 11.07213804 -13.03377456 13.11804291 -15 15.8125 C-15.66 15.4825 -16.32 15.1525 -17 14.8125 C-15.88200014 13.47329162 -14.75538103 12.14127444 -13.625 10.8125 C-12.68527344 9.69875 -12.68527344 9.69875 -11.7265625 8.5625 C-10.87191406 7.69625 -10.87191406 7.69625 -10 6.8125 C-9.34 6.8125 -8.68 6.8125 -8 6.8125 C-7.7525 6.214375 -7.505 5.61625 -7.25 5 C-5.51604231 1.96557404 -3.71139501 -0.34794328 0 0 Z " fill="#FFE659" transform="translate(306,417.1875)"/>
<path d="M0 0 C2.81098018 2.27661563 3.90718637 3.42777107 4.49609375 7.05859375 C4.47675781 8.17363281 4.45742187 9.28867187 4.4375 10.4375 C4.43621094 11.54996094 4.43492187 12.66242188 4.43359375 13.80859375 C3.96297278 17.27253367 2.94197343 19.13709071 1 22 C0.30420546 24.19130534 0.30420546 24.19130534 0 26 C-0.99 26 -1.98 26 -3 26 C-1.125 21.125 -1.125 21.125 0 20 C0.08669432 18.5112814 0.10703494 17.018555 0.09765625 15.52734375 C0.09443359 14.62822266 0.09121094 13.72910156 0.08789062 12.80273438 C0.07951172 11.85720703 0.07113281 10.91167969 0.0625 9.9375 C0.05798828 8.98810547 0.05347656 8.03871094 0.04882812 7.06054688 C0.0370011 4.70696935 0.02052025 2.35351523 0 0 Z " fill="#FFFFAA" transform="translate(183,281)"/>
<path d="M0 0 C2.46800047 1.15173355 4.04783565 2.04783565 6 4 C6.265625 6.09375 6.265625 6.09375 6.25 8.5 C6.25515625 9.2940625 6.2603125 10.088125 6.265625 10.90625 C6 13 6 13 4 15 C0.68814124 15.44582714 -1.8335852 15.68358514 -4.79296875 13.94921875 C-6.4375 12.625 -6.4375 12.625 -9 10 C-9 9.34 -9 8.68 -9 8 C-9.66 8 -10.32 8 -11 8 C-11.33 7.01 -11.66 6.02 -12 5 C-12.99 4.34 -13.98 3.68 -15 3 C-14.67 2.34 -14.34 1.68 -14 1 C-12 2.3125 -12 2.3125 -10 4 C-10 4.99 -10 5.98 -10 7 C-9.01 7 -8.02 7 -7 7 C-6.731875 7.639375 -6.46375 8.27875 -6.1875 8.9375 C-5.11332248 11.33131686 -5.11332248 11.33131686 -2 12 C-2 12.66 -2 13.32 -2 14 C0.31 13.34 2.62 12.68 5 12 C4.58525633 6.71201818 3.64775386 3.88309282 0 0 Z " fill="#FFEC60" transform="translate(188,439)"/>
<path d="M0 0 C0.66 0.33 1.32 0.66 2 1 C1.2884375 1.6496875 1.2884375 1.6496875 0.5625 2.3125 C-1.23686957 4.02309613 -1.23686957 4.02309613 -2 7 C-3.2065625 7.8971875 -3.2065625 7.8971875 -4.4375 8.8125 C-7.42403685 11.36198268 -8.06193758 13.24775032 -9 17 C-8.01 17.33 -7.02 17.66 -6 18 C-6 18.66 -6 19.32 -6 20 C-5.34 20 -4.68 20 -4 20 C-3.34 20.99 -2.68 21.98 -2 23 C-2.33 23.99 -2.66 24.98 -3 26 C-4.22921167 24.50501284 -5.45799674 23.00967065 -6.68359375 21.51171875 C-8.00193023 19.90690056 -8.00193023 19.90690056 -9.875 18.5 C-11 17 -11 17 -11 14.125 C-9.7731208 10.29100249 -8.07324304 8.54854301 -5 6 C-4.34 6 -3.68 6 -3 6 C-2.87625 5.38125 -2.7525 4.7625 -2.625 4.125 C-2 2 -2 2 0 0 Z " fill="#FFE354" transform="translate(169,393)"/>
<path d="M0 0 C0 0.99 0 1.98 0 3 C-4.14038668 4.93405818 -8.15394997 6.76251227 -12.5625 8 C-16.10664906 9.03102518 -19.06518289 10.45355621 -22.30078125 12.1953125 C-24 13 -24 13 -26 13 C-26 12.01 -26 11.02 -26 10 C-24.68 10 -23.36 10 -22 10 C-22 9.34 -22 8.68 -22 8 C-20.68 8 -19.36 8 -18 8 C-18 7.34 -18 6.68 -18 6 C-16.741875 5.896875 -15.48375 5.79375 -14.1875 5.6875 C-10.62221973 5.25118948 -9.43418741 4.64585588 -7 2 C-4.69011685 1.25613932 -2.35684056 0.57809297 0 0 Z " fill="#98E26E" transform="translate(195,160)"/>
<path d="M0 0 C3.96 0 7.92 0 12 0 C12 0.66 12 1.32 12 2 C13.093125 2.103125 14.18625 2.20625 15.3125 2.3125 C18.85559629 2.97307727 19.93243723 3.2027092 22 6 C21.01 6.495 21.01 6.495 20 7 C20 6.34 20 5.68 20 5 C10.670132 2.89773924 2.43459553 3.04622941 -7 4 C-6.67 3.34 -6.34 2.68 -6 2 C-4.02 2 -2.04 2 0 2 C0 1.34 0 0.68 0 0 Z " fill="#FFFFB8" transform="translate(153,264)"/>
<path d="M0 0 C2.70361469 3.24433763 3 4.70892052 3 9 C0.625 11.75 0.625 11.75 -2 14 C-2.66 14 -3.32 14 -4 14 C-4 14.66 -4 15.32 -4 16 C-4.66 16 -5.32 16 -6 16 C-6 16.66 -6 17.32 -6 18 C-6.99 18.33 -7.98 18.66 -9 19 C-9 18.34 -9 17.68 -9 17 C-8.34 17 -7.68 17 -7 17 C-7 16.34 -7 15.68 -7 15 C-6.34 15 -5.68 15 -5 15 C-5 14.34 -5 13.68 -5 13 C-4.34 13 -3.68 13 -3 13 C-1.35173889 10.03312999 -0.55728913 7.34373475 0 4 C-3.32534757 2.89155081 -5.62182575 3.15545644 -9 4 C-9 3.34 -9 2.68 -9 2 C-5.52648925 -0.31567384 -4.08600528 -0.59587577 0 0 Z " fill="#FFED5B" transform="translate(262,191)"/>
<path d="M0 0 C0.66 0.33 1.32 0.66 2 1 C0.625 2.5 0.625 2.5 -1 4 C-1.66 4 -2.32 4 -3 4 C-3 4.66 -3 5.32 -3 6 C-15.59282511 6.76681614 -15.59282511 6.76681614 -19.04296875 4.88671875 C-20.375 3.5 -20.375 3.5 -22 1 C-21.15179688 1.32742188 -20.30359375 1.65484375 -19.4296875 1.9921875 C-15.79809989 3.05932828 -12.89663699 3.20197218 -9.125 3.125 C-7.97257813 3.10695313 -6.82015625 3.08890625 -5.6328125 3.0703125 C-4.76398438 3.04710937 -3.89515625 3.02390625 -3 3 C-3 2.34 -3 1.68 -3 1 C-2.01 0.67 -1.02 0.34 0 0 Z " fill="#757575" transform="translate(169,303)"/>
<path d="M0 0 C0.66 0.99 1.32 1.98 2 3 C0.906875 2.773125 -0.18625 2.54625 -1.3125 2.3125 C-4.85593113 1.65237128 -4.85593113 1.65237128 -7 3.1875 C-8.14592961 4.91948711 -8.14592961 4.91948711 -8 6.8125 C-6.52391883 10.04142755 -4.35310071 12.34521972 -2 15 C-2.99 15.495 -2.99 15.495 -4 16 C-4 15.34 -4 14.68 -4 14 C-5.32 13.34 -6.64 12.68 -8 12 C-8 11.34 -8 10.68 -8 10 C-8.99 9.67 -9.98 9.34 -11 9 C-11.1875 5.625 -11.1875 5.625 -11 2 C-6.91569792 -0.72286806 -4.85409123 -0.38524534 0 0 Z " fill="#FFE95D" transform="translate(117,364)"/>
<path d="M0 0 C0.66 0 1.32 0 2 0 C2 1.65 2 3.3 2 5 C2.99 5.33 3.98 5.66 5 6 C5 6.66 5 7.32 5 8 C4.34 8 3.68 8 3 8 C3 10.31 3 12.62 3 15 C3.66 15 4.32 15 5 15 C4.67 15.99 4.34 16.98 4 18 C1.17043521 15.29345977 0.03249687 14.0113025 -0.09765625 9.9609375 C-0.08605469 8.77757812 -0.07445312 7.59421875 -0.0625 6.375 C-0.05347656 5.18648438 -0.04445312 3.99796875 -0.03515625 2.7734375 C-0.02355469 1.85820312 -0.01195312 0.94296875 0 0 Z " fill="#4C4C4C" transform="translate(142,286)"/>
<path d="M0 0 C4 2 8 4 12 6 C12 6.99 12 7.98 12 9 C10.35 9 8.7 9 7 9 C7 8.34 7 7.68 7 7 C5.824375 7.0928125 5.824375 7.0928125 4.625 7.1875 C3.75875 7.125625 2.8925 7.06375 2 7 C0 4 0 4 0 0 Z " fill="#090805" transform="translate(201,319)"/>
<path d="M0 0 C0.33 0.99 0.66 1.98 1 3 C1.66 3 2.32 3 3 3 C2.67 5.97 2.34 8.94 2 12 C0.68 12.33 -0.64 12.66 -2 13 C-2 12.34 -2 11.68 -2 11 C-1.34 11 -0.68 11 0 11 C-0.33 8.03 -0.66 5.06 -1 2 C-5.25731568 1.59250325 -5.25731568 1.59250325 -8.875 3.5 C-9.24625 3.995 -9.6175 4.49 -10 5 C-10.66 4.67 -11.32 4.34 -12 4 C-8.41084094 -0.78554541 -5.58334594 -0.37222306 0 0 Z " fill="#A8A8A7" transform="translate(157,282)"/>
<path d="M0 0 C0.99 0.33 1.98 0.66 3 1 C1.625 3.5 1.625 3.5 0 6 C-0.66 6 -1.32 6 -2 6 C-2 6.99 -2 7.98 -2 9 C-2.66 9 -3.32 9 -4 9 C-4 9.66 -4 10.32 -4 11 C-4.66 11 -5.32 11 -6 11 C-6.33 12.32 -6.66 13.64 -7 15 C-7.66 15 -8.32 15 -9 15 C-9 15.66 -9 16.32 -9 17 C-10.65 16.67 -12.3 16.34 -14 16 C-14 15.34 -14 14.68 -14 14 C-13.2575 13.7525 -12.515 13.505 -11.75 13.25 C-8.79396573 11.90634806 -7.23312872 10.31013315 -5 8 C-4.34 8 -3.68 8 -3 8 C-2.87625 7.236875 -2.7525 6.47375 -2.625 5.6875 C-2 3 -2 3 0 0 Z " fill="#9BDE6B" transform="translate(363,221)"/>
<path d="M0 0 C3.63 0 7.26 0 11 0 C11.33 0.66 11.66 1.32 12 2 C8.7 1.67 5.4 1.34 2 1 C2 1.66 2 2.32 2 3 C0.02 3.99 0.02 3.99 -2 5 C-0.68 5.66 0.64 6.32 2 7 C0.3603125 7.2165625 0.3603125 7.2165625 -1.3125 7.4375 C-4.93122987 7.88288104 -4.93122987 7.88288104 -8 9 C-6.75023244 5.34683329 -6.32901247 4.21934164 -3 2 C-2.01 2 -1.02 2 0 2 C0 1.34 0 0.68 0 0 Z " fill="#4F504F" transform="translate(286,280)"/>
<path d="M0 0 C0.99 0.33 1.98 0.66 3 1 C3 1.66 3 2.32 3 3 C3.66 3 4.32 3 5 3 C4.56581514 8.01483511 3.38465181 10.23939489 -0.25 13.6875 C-1.01828125 14.43386719 -1.7865625 15.18023437 -2.578125 15.94921875 C-4.93823948 17.94770278 -7.30449864 19.49453382 -10 21 C-8.49663014 17.17324037 -6.16477592 15.51559112 -3 13 C-2.67 12.01 -2.34 11.02 -2 10 C0.0625 8.8125 0.0625 8.8125 2 8 C1.47731534 5.23723823 0.89130413 2.6739124 0 0 Z " fill="#FFE456" transform="translate(137,403)"/>
<path d="M0 0 C2.97 0.495 2.97 0.495 6 1 C2.95797381 5.25883667 -0.4839539 8.38603243 -5 11 C-5.66 11 -6.32 11 -7 11 C-7 10.34 -7 9.68 -7 9 C-6.34 9 -5.68 9 -5 9 C-5 8.01 -5 7.02 -5 6 C-4.34 6 -3.68 6 -3 6 C-2.690625 5.38125 -2.38125 4.7625 -2.0625 4.125 C-1.375 2.75 -0.6875 1.375 0 0 Z " fill="#E7EB70" transform="translate(124,204)"/>
<path d="M0 0 C0.33 0.66 0.66 1.32 1 2 C1.66 2 2.32 2 3 2 C3.738041 14.66970387 3.738041 14.66970387 -1 20 C-1 15.6897105 -0.57049691 11.42314977 -0.21875 7.12890625 C-0.05294305 4.75727464 0 2.37742054 0 0 Z " fill="#7C7C7C" transform="translate(173,283)"/>
<path d="M0 0 C0.33 0.66 0.66 1.32 1 2 C0.34 2 -0.32 2 -1 2 C-1.1546875 2.928125 -1.1546875 2.928125 -1.3125 3.875 C-2 6 -2 6 -5 8 C-6.32 8 -7.64 8 -9 8 C-9 7.34 -9 6.68 -9 6 C-9.66 6 -10.32 6 -11 6 C-11 5.34 -11 4.68 -11 4 C-11.66 4 -12.32 4 -13 4 C-12.67 3.01 -12.34 2.02 -12 1 C-10.824375 1.99 -10.824375 1.99 -9.625 3 C-7.28487188 5.20201441 -7.28487188 5.20201441 -5 5 C-5 4.34 -5 3.68 -5 3 C-2.5 1.375 -2.5 1.375 0 0 Z " fill="#FFE657" transform="translate(313,392)"/>
<path d="M0 0 C2.97 0.495 2.97 0.495 6 1 C6.33 2.32 6.66 3.64 7 5 C5.68 4.67 4.36 4.34 3 4 C3.33 5.98 3.66 7.96 4 10 C1.4375 7.8125 1.4375 7.8125 -1 5 C-0.8125 2.1875 -0.8125 2.1875 0 0 Z " fill="#645A2E" transform="translate(199,316)"/>
<path d="M0 0 C1.60080151 4.00200378 0.29279692 7.04556236 -1 11 C1.64 11 4.28 11 7 11 C6.67 11.66 6.34 12.32 6 13 C0.25 13.125 0.25 13.125 -2 12 C-2 11.01 -2 10.02 -2 9 C-2.66 9 -3.32 9 -4 9 C-3.125 4.25 -3.125 4.25 -2 2 C-1.34 2 -0.68 2 0 2 C0 1.34 0 0.68 0 0 Z " fill="#FFEF5F" transform="translate(206,240)"/>
<path d="M0 0 C2.31 0.33 4.62 0.66 7 1 C7.33 2.65 7.66 4.3 8 6 C8.66 6 9.32 6 10 6 C9.46930939 9.82097239 8.50298434 12.06171403 6 15 C5.34 14.67 4.68 14.34 4 14 C4.66 13.34 5.32 12.68 6 12 C6.40047444 9.67724823 6.7397104 7.34260643 7 5 C6.34 5 5.68 5 5 5 C5 4.34 5 3.68 5 3 C2.525 2.01 2.525 2.01 0 1 C0 0.67 0 0.34 0 0 Z " fill="#FFE9A3" transform="translate(319,318)"/>
<path d="M0 0 C2.31 0 4.62 0 7 0 C7 0.66 7 1.32 7 2 C7.66 2 8.32 2 9 2 C9 2.66 9 3.32 9 4 C9.66 4 10.32 4 11 4 C14.04395069 6.73955562 16.44396229 9.18063472 18 13 C18.66 13 19.32 13 20 13 C19.67 13.66 19.34 14.32 19 15 C17.68113228 13.90344712 16.37009943 12.79746577 15.0625 11.6875 C14.33160156 11.07261719 13.60070312 10.45773438 12.84765625 9.82421875 C11 8 11 8 10 5 C9.34 5 8.68 5 8 5 C8 4.34 8 3.68 8 3 C7.34 3 6.68 3 6 3 C6 2.34 6 1.68 6 1 C3.69 1.33 1.38 1.66 -1 2 C-0.67 1.34 -0.34 0.68 0 0 Z " fill="#FFEF5E" transform="translate(196,191)"/>
<path d="M0 0 C0.33 0 0.66 0 1 0 C1.09507063 6.43311296 1.15316726 12.65758005 0 19 C-0.66 19 -1.32 19 -2 19 C-2.05451714 16.95863605 -2.09302485 14.91684144 -2.125 12.875 C-2.14820313 11.73804687 -2.17140625 10.60109375 -2.1953125 9.4296875 C-1.99672109 5.94242233 -1.2524801 3.2446138 0 0 Z " fill="#75E885" transform="translate(199,110)"/>
<path d="M0 0 C0 0.99 0 1.98 0 3 C-1 4 -2 5 -3 6 C-3.71447643 8.10332891 -3.71447643 8.10332891 -4 10 C-3.34 10 -2.68 10 -2 10 C-2 10.66 -2 11.32 -2 12 C-1.34 12 -0.68 12 0 12 C-0.33 12.66 -0.66 13.32 -1 14 C-5.6875 10.484375 -5.6875 10.484375 -7 9 C-7 7.68 -7 6.36 -7 5 C-4.625 3.375 -4.625 3.375 -2 2 C-1.34 1.34 -0.68 0.68 0 0 Z " fill="#FFE75A" transform="translate(320,401)"/>
<path d="M0 0 C-0.33 0.99 -0.66 1.98 -1 3 C-2.65 3 -4.3 3 -6 3 C-6 3.66 -6 4.32 -6 5 C-6.66 5 -7.32 5 -8 5 C-6.78955868 9.60742865 -6.78955868 9.60742865 -5 14 C-6.32 13.67 -7.64 13.34 -9 13 C-9.29356154 9.94695995 -9.4244472 7.04449167 -9 4 C-5.89503517 0.46379006 -4.75763209 0 0 0 Z " fill="#FFDABA" transform="translate(133,311)"/>
<path d="M0 0 C0.99 0.33 1.98 0.66 3 1 C3 1.66 3 2.32 3 3 C3.66 3 4.32 3 5 3 C5.83288874 9.25307239 6.03863773 14.76817361 5 21 C4.67 21 4.34 21 4 21 C3.93941406 20.04738281 3.87882812 19.09476562 3.81640625 18.11328125 C3.73261719 16.85902344 3.64882813 15.60476563 3.5625 14.3125 C3.48128906 13.07113281 3.40007812 11.82976562 3.31640625 10.55078125 C3.05508683 7.61819663 2.65201621 4.86558383 2 2 C1.34 2 0.68 2 0 2 C0 1.34 0 0.68 0 0 Z " fill="#686868" transform="translate(302,285)"/>
<path d="M0 0 C0.75732422 0.00966797 1.51464844 0.01933594 2.29492188 0.02929688 C3.08060547 0.05443359 3.86628906 0.07957031 4.67578125 0.10546875 C5.87170898 0.12577148 5.87170898 0.12577148 7.09179688 0.14648438 C9.05758092 0.18179786 11.02301707 0.23560428 12.98828125 0.29296875 C12.65828125 0.95296875 12.32828125 1.61296875 11.98828125 2.29296875 C10.68503906 2.22335937 10.68503906 2.22335937 9.35546875 2.15234375 C0.35567187 1.80393891 0.35567187 1.80393891 -7.01171875 6.29296875 C-8.00171875 6.78796875 -8.00171875 6.78796875 -9.01171875 7.29296875 C-6.98598374 2.77402143 -5.24865263 -0.11839066 0 0 Z " fill="#909090" transform="translate(154.01171875,274.70703125)"/>
<path d="M0 0 C0.33 1.32 0.66 2.64 1 4 C-1.31 5.98 -3.62 7.96 -6 10 C-6.33 8.68 -6.66 7.36 -7 6 C-6.34 6 -5.68 6 -5 6 C-5 5.34 -5 4.68 -5 4 C-3.37373596 2.61767557 -1.7074998 1.28062485 0 0 Z " fill="#FFEC60" transform="translate(180,383)"/>
<path d="M0 0 C3.36143418 1.12047806 4.57528834 2.49707183 7 5 C7.66 5.33 8.32 5.66 9 6 C9.33 6.99 9.66 7.98 10 9 C10.66 9.33 11.32 9.66 12 10 C12.625 12.0625 12.625 12.0625 13 14 C12.34 14 11.68 14 11 14 C11 13.01 11 12.02 11 11 C9.68 10.34 8.36 9.68 7 9 C7 8.34 7 7.68 7 7 C6.401875 6.731875 5.80375 6.46375 5.1875 6.1875 C3.00152146 5.00082594 1.58667406 3.90400887 0 2 C0 1.34 0 0.68 0 0 Z " fill="#FFE75A" transform="translate(115,380)"/>
<path d="M0 0 C1.32 0.33 2.64 0.66 4 1 C2.625 2.5 2.625 2.5 1 4 C0.34 4 -0.32 4 -1 4 C-1.2475 4.53625 -1.495 5.0725 -1.75 5.625 C-3.29814886 8.56648283 -5.13010957 11.25359843 -7 14 C-7.66 14.99 -8.32 15.98 -9 17 C-8.20780118 11.45460827 -5.60498704 7.23194131 -2 3 C-1.34 3 -0.68 3 0 3 C0 2.01 0 1.02 0 0 Z " fill="#FFFFBE" transform="translate(142,268)"/>
<path d="M0 0 C0.66 0.33 1.32 0.66 2 1 C0.3125 4 0.3125 4 -2 7 C-4.75 7.375 -4.75 7.375 -7 7 C-7.66 5.68 -8.32 4.36 -9 3 C-6.69 3.33 -4.38 3.66 -2 4 C-1.34 2.68 -0.68 1.36 0 0 Z " fill="#FFE455" transform="translate(155,393)"/>
<path d="M0 0 C1.2065625 0.0309375 1.2065625 0.0309375 2.4375 0.0625 C0.5625 1.125 0.5625 1.125 -1.5625 2.0625 C-2.2225 1.7325 -2.8825 1.4025 -3.5625 1.0625 C-2.5625 0.0625 -2.5625 0.0625 0 0 Z M-7.5625 2.0625 C-5.5 2.5 -5.5 2.5 -3.5625 3.0625 C-8.3125 7.0625 -8.3125 7.0625 -10.5625 7.0625 C-8.6875 3.1875 -8.6875 3.1875 -7.5625 2.0625 Z M-13.5625 7.0625 C-10.5625 8.0625 -10.5625 8.0625 -10.5625 8.0625 Z " fill="#65D475" transform="translate(333.5625,105.9375)"/>
<path d="M0 0 C0.33 0.99 0.66 1.98 1 3 C3.31 3.33 5.62 3.66 8 4 C8 4.66 8 5.32 8 6 C7.34 6 6.68 6 6 6 C5.67 6.99 5.34 7.98 5 9 C4.34 8.67 3.68 8.34 3 8 C3 7.34 3 6.68 3 6 C2.34 6 1.68 6 1 6 C0.67 4.02 0.34 2.04 0 0 Z " fill="#EFE76D" transform="translate(348,234)"/>
<path d="M0 0 C1.9375 0.8125 1.9375 0.8125 4 2 C4.33 2.99 4.66 3.98 5 5 C5.66 5 6.32 5 7 5 C7 5.66 7 6.32 7 7 C7.66 7 8.32 7 9 7 C9.33 8.65 9.66 10.3 10 12 C9.34 12 8.68 12 8 12 C6.97862543 10.34634594 5.98387706 8.67623498 5 7 C4.12247691 5.90178249 3.22607308 4.81841598 2.3125 3.75 C0 1 0 1 0 0 Z " fill="#FFEC59" transform="translate(211,217)"/>
<path d="M0 0 C0.66 0 1.32 0 2 0 C2 0.66 2 1.32 2 2 C3.32 2.66 4.64 3.32 6 4 C6 5.32 6 6.64 6 8 C5.34 8 4.68 8 4 8 C4 7.34 4 6.68 4 6 C3.01 6 2.02 6 1 6 C0.67 4.02 0.34 2.04 0 0 Z " fill="#6DDC7D" transform="translate(192,97)"/>
<path d="M0 0 C0.66 0.33 1.32 0.66 2 1 C0.57847097 4.43536181 -1.07260444 5.80445333 -4 8 C-4.350625 8.70125 -4.70125 9.4025 -5.0625 10.125 C-5.5265625 11.053125 -5.5265625 11.053125 -6 12 C-6.99 12.33 -7.98 12.66 -9 13 C-9 12.34 -9 11.68 -9 11 C-8.34 10.67 -7.68 10.34 -7 10 C-5.96210419 8.35666496 -4.96432076 6.68756133 -4 5 C-3.34 4.01 -2.68 3.02 -2 2 C-1.34 2 -0.68 2 0 2 C0 1.34 0 0.68 0 0 Z " fill="#FFE759" transform="translate(166,380)"/>
<path d="M0 0 C0.66 0.33 1.32 0.66 2 1 C0.625 3 0.625 3 -1 5 C-1.66 5 -2.32 5 -3 5 C-3.226875 5.61875 -3.45375 6.2375 -3.6875 6.875 C-5.37929835 9.61410209 -6.99244161 10.05024472 -10 11 C-8.71937515 9.2925002 -7.38232443 7.62626404 -6 6 C-5.34 6 -4.68 6 -4 6 C-3.71125 5.38125 -3.4225 4.7625 -3.125 4.125 C-2 2 -2 2 0 0 Z " fill="#FFEE5E" transform="translate(217,229)"/>
<path d="M0 0 C0 0.99 0 1.98 0 3 C-1.4317616 3.69937202 -2.87067032 4.38412718 -4.3125 5.0625 C-5.51326172 5.63677734 -5.51326172 5.63677734 -6.73828125 6.22265625 C-9 7 -9 7 -12 6 C-8.0949151 2.44992282 -5.02265357 1.18180084 0 0 Z " fill="#BAEB74" transform="translate(195,160)"/>
<path d="M0 0 C1.27875 -0.061875 2.5575 -0.12375 3.875 -0.1875 C4.95394531 -0.23970703 4.95394531 -0.23970703 6.0546875 -0.29296875 C6.69664063 -0.19628906 7.33859375 -0.09960938 8 0 C8.66 0.99 9.32 1.98 10 3 C8.906875 2.773125 7.81375 2.54625 6.6875 2.3125 C3.14210047 1.61884315 3.14210047 1.61884315 1.1875 3.25 C0.11683433 4.82782309 -0.94230284 6.41345425 -2 8 C-2 6.35 -2 4.7 -2 3 C-1.34 3 -0.68 3 0 3 C0 2.01 0 1.02 0 0 Z " fill="#FFE050" transform="translate(109,364)"/>
<path d="M0 0 C1.32 0 2.64 0 4 0 C4 1.32 4 2.64 4 4 C2.02 4.33 0.04 4.66 -2 5 C-1.125 1.125 -1.125 1.125 0 0 Z " fill="#0E0D0A" transform="translate(240,321)"/>
<path d="M0 0 C-1.55603771 3.81936528 -3.95604931 6.26044438 -7 9 C-7.66 9 -8.32 9 -9 9 C-7.45665977 5.21180126 -4.44676575 0 0 0 Z " fill="#D9F375" transform="translate(142,193)"/>
<path d="M0 0 C4.23429756 1.31061591 8.07407404 2.94356259 12 5 C12 5.66 12 6.32 12 7 C12.66 7.33 13.32 7.66 14 8 C13.01 8 12.02 8 11 8 C11 7.34 11 6.68 11 6 C10.443125 5.87625 9.88625 5.7525 9.3125 5.625 C2.52747253 3.79120879 2.52747253 3.79120879 0 0 Z " fill="#D5FE91" transform="translate(279,168)"/>
<path d="M0 0 C0.66 0.33 1.32 0.66 2 1 C1.04882866 2.1725131 0.08882991 3.33787015 -0.875 4.5 C-1.40867188 5.1496875 -1.94234375 5.799375 -2.4921875 6.46875 C-2.98976562 6.9740625 -3.48734375 7.479375 -4 8 C-4.66 8 -5.32 8 -6 8 C-6 8.66 -6 9.32 -6 10 C-6.99 10.33 -7.98 10.66 -9 11 C-9 10.34 -9 9.68 -9 9 C-8.34 9 -7.68 9 -7 9 C-6.6596875 8.1646875 -6.6596875 8.1646875 -6.3125 7.3125 C-4.64103234 4.36753316 -2.44723648 2.31843456 0 0 Z " fill="#FFEE5D" transform="translate(240,206)"/>
<path d="M0 0 C0.33 0 0.66 0 1 0 C1 2.64 1 5.28 1 8 C1.61875 8.0825 2.2375 8.165 2.875 8.25 C5 9 5 9 6.25 11.0625 C6.4975 11.701875 6.745 12.34125 7 13 C6.34 13 5.68 13 5 13 C5 12.34 5 11.68 5 11 C4.360625 10.855625 3.72125 10.71125 3.0625 10.5625 C1 10 1 10 0 9 C-0.07179964 7.48071962 -0.08392007 5.95832518 -0.0625 4.4375 C-0.05347656 3.61121094 -0.04445313 2.78492188 -0.03515625 1.93359375 C-0.02355469 1.29550781 -0.01195312 0.65742188 0 0 Z " fill="#93E779" transform="translate(295,169)"/>
<path d="M0 0 C1.32 0.33 2.64 0.66 4 1 C3.34 1 2.68 1 2 1 C2 1.66 2 2.32 2 3 C-3.17578125 6.22265625 -3.17578125 6.22265625 -5 7 C-5.99 6.67 -6.98 6.34 -8 6 C-3.375 2 -3.375 2 0 2 C0 1.34 0 0.68 0 0 Z " fill="#BEEA71" transform="translate(165,173)"/>
<path d="M0 0 C0.66 0.33 1.32 0.66 2 1 C1.67 1.66 1.34 2.32 1 3 C2.65 3 4.3 3 6 3 C6.33 3.66 6.66 4.32 7 5 C4.03 5 1.06 5 -2 5 C-1.34 3.35 -0.68 1.7 0 0 Z " fill="#FFEDAE" transform="translate(311,313)"/>
<path d="M0 0 C0.33 0 0.66 0 1 0 C1.33 2.97 1.66 5.94 2 9 C0.68 8.67 -0.64 8.34 -2 8 C-2 6.02 -2 4.04 -2 2 C-1.34 2 -0.68 2 0 2 C0 1.34 0 0.68 0 0 Z " fill="#5B5B5A" transform="translate(276,290)"/>
<path d="M0 0 C0.33 1.32 0.66 2.64 1 4 C-1.65228812 5.07525194 -4.28368454 6.09456151 -7 7 C-6.67 6.01 -6.34 5.02 -6 4 C-5.34 4 -4.68 4 -4 4 C-3.67 3.01 -3.34 2.02 -3 1 C-2.01 0.67 -1.02 0.34 0 0 Z " fill="#6ED368" transform="translate(373,208)"/>
<path d="M0 0 C0.66 0.33 1.32 0.66 2 1 C0.625 3 0.625 3 -1 5 C-1.66 5 -2.32 5 -3 5 C-3 7.97 -3 10.94 -3 14 C-3.33 14 -3.66 14 -4 14 C-4.63019694 4.82713348 -4.63019694 4.82713348 -2 1.375 C-1.34 0.92125 -0.68 0.4675 0 0 Z " fill="#82EC93" transform="translate(306,117)"/>
<path d="M0 0 C1.02104551 0.97850195 2.0206121 1.97980427 3 3 C3 3.33 3 3.66 3 4 C-0.3 4.66 -3.6 5.32 -7 6 C-7 5.34 -7 4.68 -7 4 C-4.35261084 2.5393715 -3.10551666 2 0 2 C0 1.34 0 0.68 0 0 Z " fill="#FFF593" transform="translate(135,306)"/>
<path d="M0 0 C-0.33 0.66 -0.66 1.32 -1 2 C-1.66 2 -2.32 2 -3 2 C-3 2.66 -3 3.32 -3 4 C-4.65 3.67 -6.3 3.34 -8 3 C-8 2.34 -8 1.68 -8 1 C-3.375 -1.125 -3.375 -1.125 0 0 Z " fill="#BBD968" transform="translate(357,234)"/>
<path d="M0 0 C1.32 0 2.64 0 4 0 C6 3 6 3 5.625 5.1875 C5.41875 5.785625 5.2125 6.38375 5 7 C4.34 5.68 3.68 4.36 3 3 C2.34 3 1.68 3 1 3 C0.67 2.01 0.34 1.02 0 0 Z " fill="#FFFFA1" transform="translate(308,277)"/>
<path d="M0 0 C0.66 0 1.32 0 2 0 C2 0.66 2 1.32 2 2 C1.34 2 0.68 2 0 2 C-0.144375 2.78375 -0.28875 3.5675 -0.4375 4.375 C-1 7 -1 7 -2 9 C-2.66 8.67 -3.32 8.34 -4 8 C-1.125 1.125 -1.125 1.125 0 0 Z " fill="#83D96A" transform="translate(370,212)"/>
<path d="M0 0 C0 0.99 0 1.98 0 3 C-2 4.6875 -2 4.6875 -4 6 C-3.6875 4.125 -3.6875 4.125 -3 2 C-2.01 1.34 -1.02 0.68 0 0 Z M-6 6 C-5.34 6.33 -4.68 6.66 -4 7 C-5.98 7.99 -5.98 7.99 -8 9 C-7.34 8.01 -6.68 7.02 -6 6 Z " fill="#FFF369" transform="translate(291,432)"/>
<path d="M0 0 C1.31896465 0.92838287 2.62998689 1.86805732 3.9375 2.8125 C4.66839844 3.33457031 5.39929688 3.85664063 6.15234375 4.39453125 C8 6 8 6 9 9 C8.34 9 7.68 9 7 9 C7 8.34 7 7.68 7 7 C6.401875 6.731875 5.80375 6.46375 5.1875 6.1875 C3.00152146 5.00082594 1.58667406 3.90400887 0 2 C0 1.34 0 0.68 0 0 Z " fill="#FFE354" transform="translate(137,387)"/>
<path d="M0 0 C3 2 3 2 3.6875 5.125 C3.8421875 6.548125 3.8421875 6.548125 4 8 C3.34 8 2.68 8 2 8 C-0.1519437 4.77208445 -0.20086443 3.71599191 0 0 Z " fill="#95DB6A" transform="translate(117,184)"/>
<path d="M0 0 C1.31554985 0.4495045 2.62738358 0.90989716 3.9375 1.375 C5.03384766 1.75785156 5.03384766 1.75785156 6.15234375 2.1484375 C8 3 8 3 9 5 C7.68 5 6.36 5 5 5 C5 4.34 5 3.68 5 3 C3.35 2.67 1.7 2.34 0 2 C0 1.34 0 0.68 0 0 Z " fill="#FFE6A7" transform="translate(286,331)"/>
</svg>
